<?xml version="1.0" encoding="UTF-8"?>
<svg version="1.1" xmlns="http://www.w3.org/2000/svg" width="256" height="256">
<path d="M0 0 C2.62233858 -0.00434522 5.24295111 -0.04067341 7.86499023 -0.07861328 C36.66066422 -0.27114989 64.19896655 10.81969719 86.08959961 29.37060547 C87.09506836 30.21236328 88.10053711 31.05412109 89.13647461 31.92138672 C109.15475754 49.17173347 122.51237789 72.89881953 129.08959961 98.37060547 C129.26765137 99.00667725 129.44570312 99.64274902 129.62915039 100.2980957 C131.63271155 108.51377076 131.46175792 116.87623781 131.46020508 125.28100586 C131.4645503 127.90334444 131.50087849 130.52395697 131.53881836 133.14599609 C131.73135497 161.94167008 120.64050788 189.47997241 102.08959961 211.37060547 C101.2478418 212.37607422 100.40608398 213.38154297 99.53881836 214.41748047 C82.28847161 234.4357634 58.56138555 247.79338375 33.08959961 254.37060547 C32.45352783 254.54865723 31.81745605 254.72670898 31.16210938 254.91015625 C22.94643432 256.91371741 14.58396727 256.74276378 6.17919922 256.74121094 C3.55686064 256.74555615 0.93624811 256.78188435 -1.68579102 256.81982422 C-30.481465 257.01236083 -58.01976733 245.92151374 -79.91040039 227.37060547 C-80.91586914 226.52884766 -81.92133789 225.68708984 -82.95727539 224.81982422 C-102.97555832 207.56947747 -116.33317867 183.84239141 -122.91040039 158.37060547 C-123.08845215 157.73453369 -123.26650391 157.09846191 -123.44995117 156.44311523 C-125.45351233 148.22744018 -125.2825587 139.86497313 -125.28100586 131.46020508 C-125.28535108 128.83786649 -125.32167927 126.21725397 -125.35961914 123.59521484 C-125.55215575 94.79954086 -114.46130867 67.26123853 -95.91040039 45.37060547 C-95.06864258 44.36513672 -94.22688477 43.35966797 -93.35961914 42.32373047 C-76.10927239 22.30544754 -52.38218633 8.94782719 -26.91040039 2.37060547 C-26.27432861 2.19255371 -25.63825684 2.01450195 -24.98291016 1.83105469 C-16.7672351 -0.17250647 -8.40476805 -0.00155284 0 0 Z " fill="#FCFCFC" transform="translate(124.910400390625,-0.37060546875)"/>
<path d="M0 0 C6.27690438 0.61674813 6.27690438 0.61674813 7.77734375 2.1171875 C9.81948007 1.97808546 11.86106158 1.83080748 13.90234375 1.6796875 C20.03343414 1.59200414 20.03343414 1.59200414 23.1953125 3.82421875 C27.77734375 9.0675741 27.77734375 9.0675741 27.77734375 12.1171875 C32.72734375 12.6121875 32.72734375 12.6121875 37.77734375 13.1171875 C38.18984375 12.3128125 38.60234375 11.5084375 39.02734375 10.6796875 C40.77734375 8.1171875 40.77734375 8.1171875 42.96484375 7.3046875 C43.56296875 7.2428125 44.16109375 7.1809375 44.77734375 7.1171875 C45.27234375 9.0971875 45.27234375 9.0971875 45.77734375 11.1171875 C47.09734375 11.4471875 48.41734375 11.7771875 49.77734375 12.1171875 C49.77734375 12.7771875 49.77734375 13.4371875 49.77734375 14.1171875 C50.43734375 14.1171875 51.09734375 14.1171875 51.77734375 14.1171875 C51.77734375 14.7771875 51.77734375 15.4371875 51.77734375 16.1171875 C52.63457031 16.13136719 53.49179688 16.14554688 54.375 16.16015625 C61.8009928 16.46992145 66.27500132 16.99000478 71.77734375 22.1171875 C72.10734375 22.7771875 72.43734375 23.4371875 72.77734375 24.1171875 C73.51984375 24.4059375 74.26234375 24.6946875 75.02734375 24.9921875 C78.13884821 26.26507569 80.19222825 27.98446721 82.77734375 30.1171875 C84.10765625 30.8596875 84.10765625 30.8596875 85.46484375 31.6171875 C87.96936214 33.24173997 88.73412189 34.36687533 89.77734375 37.1171875 C91.10765625 36.9625 91.10765625 36.9625 92.46484375 36.8046875 C96.80086836 37.21374643 97.89397903 39.00003646 100.77734375 42.1171875 C101.76734375 42.1171875 102.75734375 42.1171875 103.77734375 42.1171875 C103.77734375 43.1071875 103.77734375 44.0971875 103.77734375 45.1171875 C104.89109375 45.1996875 106.00484375 45.2821875 107.15234375 45.3671875 C110.77734375 46.1171875 110.77734375 46.1171875 112.46484375 47.7421875 C112.97369489 51.60945619 110.82111306 53.87120095 108.77734375 57.1171875 C108.77734375 57.7771875 108.77734375 58.4371875 108.77734375 59.1171875 C109.43734375 59.7771875 110.09734375 60.4371875 110.77734375 61.1171875 C110.97265625 63.5 110.97265625 63.5 110.90234375 66.2421875 C110.88429687 67.15226562 110.86625 68.06234375 110.84765625 69 C110.82445312 69.69867188 110.80125 70.39734375 110.77734375 71.1171875 C107.31234375 71.6121875 107.31234375 71.6121875 103.77734375 72.1171875 C103.77734375 72.7771875 103.77734375 73.4371875 103.77734375 74.1171875 C103.11734375 74.1171875 102.45734375 74.1171875 101.77734375 74.1171875 C101.77734375 73.4571875 101.77734375 72.7971875 101.77734375 72.1171875 C95.72805076 73.5741736 95.72805076 73.5741736 90.77734375 77.1171875 C90.10385214 78.78110795 89.43642785 80.44750778 88.77734375 82.1171875 C85.77734375 83.1171875 85.77734375 83.1171875 82.21484375 82.7421875 C76.19874963 82.6540396 72.33762228 86.62616683 67.77734375 90.1171875 C66.22114581 91.10633946 64.65888829 92.08604266 63.08984375 93.0546875 C59.12585202 95.65299303 56.2998696 98.66626568 53.3828125 102.3828125 C51.65263819 104.25190592 50.10524837 105.12744931 47.77734375 106.1171875 C49.77734375 103.78385417 51.77734375 101.45052083 53.77734375 99.1171875 C54.19306641 98.5806958 54.60878906 98.0442041 55.03710938 97.49145508 C58.80675127 92.77491504 62.80729569 89.89823131 68.02734375 86.9296875 C69.45472053 86.11239918 70.87686463 85.28588701 72.29296875 84.44921875 C72.91461914 84.09577393 73.53626953 83.7423291 74.17675781 83.37817383 C76.10874957 81.85609673 76.83056934 80.36149202 77.77734375 78.1171875 C78.43734375 78.1171875 79.09734375 78.1171875 79.77734375 78.1171875 C79.77734375 76.7971875 79.77734375 75.4771875 79.77734375 74.1171875 C73.46258554 77.44571426 67.39200469 80.89889136 61.5546875 85.015625 C59.77734375 86.1171875 59.77734375 86.1171875 57.77734375 86.1171875 C57.37515625 87.014375 57.37515625 87.014375 56.96484375 87.9296875 C55.77734375 90.1171875 55.77734375 90.1171875 54.27734375 91.5546875 C52.37831063 93.532847 51.67835344 95.55277532 50.77734375 98.1171875 C48.79734375 97.6221875 48.79734375 97.6221875 46.77734375 97.1171875 C45.62827255 99.0426519 45.62827255 99.0426519 45.77734375 101.1171875 C45.77734375 102.78385417 45.77734375 104.45052083 45.77734375 106.1171875 C41.15234375 108.2421875 41.15234375 108.2421875 37.77734375 107.1171875 C37.77734375 107.7771875 37.77734375 108.4371875 37.77734375 109.1171875 C38.43734375 109.4471875 39.09734375 109.7771875 39.77734375 110.1171875 C39.28234375 111.6021875 39.28234375 111.6021875 38.77734375 113.1171875 C39.43734375 113.4471875 40.09734375 113.7771875 40.77734375 114.1171875 C40.77734375 114.7771875 40.77734375 115.4371875 40.77734375 116.1171875 C39.45734375 116.4471875 38.13734375 116.7771875 36.77734375 117.1171875 C38.26234375 117.6121875 38.26234375 117.6121875 39.77734375 118.1171875 C39.77734375 119.1071875 39.77734375 120.0971875 39.77734375 121.1171875 C40.43734375 121.1171875 41.09734375 121.1171875 41.77734375 121.1171875 C41.77734375 121.7771875 41.77734375 122.4371875 41.77734375 123.1171875 C40.80796875 123.4059375 39.83859375 123.6946875 38.83984375 123.9921875 C35.67070172 124.75933432 35.67070172 124.75933432 34.77734375 127.1171875 C33.45734375 127.1171875 32.13734375 127.1171875 30.77734375 127.1171875 C30.77734375 126.1271875 30.77734375 125.1371875 30.77734375 124.1171875 C29.45734375 124.1171875 28.13734375 124.1171875 26.77734375 124.1171875 C26.77734375 126.7571875 26.77734375 129.3971875 26.77734375 132.1171875 C24.79734375 133.1071875 22.81734375 134.0971875 20.77734375 135.1171875 C19.29234375 134.1271875 19.29234375 134.1271875 17.77734375 133.1171875 C16.12184844 132.73218859 14.45510045 132.38925615 12.77734375 132.1171875 C12.77734375 133.7671875 12.77734375 135.4171875 12.77734375 137.1171875 C11.78734375 137.1171875 10.79734375 137.1171875 9.77734375 137.1171875 C9.77734375 135.7971875 9.77734375 134.4771875 9.77734375 133.1171875 C9.07867187 133.05660156 8.38 132.99601563 7.66015625 132.93359375 C6.75007813 132.84980469 5.84 132.76601562 4.90234375 132.6796875 C3.54496094 132.55787109 3.54496094 132.55787109 2.16015625 132.43359375 C-0.22265625 132.1171875 -0.22265625 132.1171875 -2.22265625 131.1171875 C-2.22265625 129.7971875 -2.22265625 128.4771875 -2.22265625 127.1171875 C-3.21265625 126.4571875 -4.20265625 125.7971875 -5.22265625 125.1171875 C-3.90265625 125.1171875 -2.58265625 125.1171875 -1.22265625 125.1171875 C-1.22265625 124.4571875 -1.22265625 123.7971875 -1.22265625 123.1171875 C-2.54265625 122.4571875 -3.86265625 121.7971875 -5.22265625 121.1171875 C-4.72765625 119.6321875 -4.72765625 119.6321875 -4.22265625 118.1171875 C-4.22265625 117.1271875 -4.22265625 116.1371875 -4.22265625 115.1171875 C-5.54265625 115.1171875 -6.86265625 115.1171875 -8.22265625 115.1171875 C-8.22265625 116.1071875 -8.22265625 117.0971875 -8.22265625 118.1171875 C-11.19265625 117.7871875 -14.16265625 117.4571875 -17.22265625 117.1171875 C-17.22265625 116.4571875 -17.22265625 115.7971875 -17.22265625 115.1171875 C-18.87265625 115.1171875 -20.52265625 115.1171875 -22.22265625 115.1171875 C-22.55265625 114.1271875 -22.88265625 113.1371875 -23.22265625 112.1171875 C-22.56265625 112.1171875 -21.90265625 112.1171875 -21.22265625 112.1171875 C-21.22265625 111.4571875 -21.22265625 110.7971875 -21.22265625 110.1171875 C-20.23265625 110.1171875 -19.24265625 110.1171875 -18.22265625 110.1171875 C-18.22265625 109.4571875 -18.22265625 108.7971875 -18.22265625 108.1171875 C-18.88265625 108.1171875 -19.54265625 108.1171875 -20.22265625 108.1171875 C-20.22265625 107.4571875 -20.22265625 106.7971875 -20.22265625 106.1171875 C-19.56265625 105.7871875 -18.90265625 105.4571875 -18.22265625 105.1171875 C-18.55265625 104.4571875 -18.88265625 103.7971875 -19.22265625 103.1171875 C-17.90265625 103.1171875 -16.58265625 103.1171875 -15.22265625 103.1171875 C-15.22265625 101.7971875 -15.22265625 100.4771875 -15.22265625 99.1171875 C-16.21265625 98.7871875 -17.20265625 98.4571875 -18.22265625 98.1171875 C-17.56265625 97.7871875 -16.90265625 97.4571875 -16.22265625 97.1171875 C-16.22265625 96.4571875 -16.22265625 95.7971875 -16.22265625 95.1171875 C-15.23265625 95.1171875 -14.24265625 95.1171875 -13.22265625 95.1171875 C-13.50882813 94.31474609 -13.50882813 94.31474609 -13.80078125 93.49609375 C-14.35411856 90.37588616 -13.74716772 88.11856376 -12.97265625 85.0546875 C-12.72 84.01183594 -12.46734375 82.96898438 -12.20703125 81.89453125 C-11.23690786 79.15739739 -10.44448287 77.92086136 -8.22265625 76.1171875 C-8.22265625 77.4371875 -8.22265625 78.7571875 -8.22265625 80.1171875 C-7.23265625 80.1171875 -6.24265625 80.1171875 -5.22265625 80.1171875 C-5.55265625 82.4271875 -5.88265625 84.7371875 -6.22265625 87.1171875 C-5.23265625 87.4471875 -4.24265625 87.7771875 -3.22265625 88.1171875 C-3.71765625 90.0971875 -3.71765625 90.0971875 -4.22265625 92.1171875 C-3.23265625 92.1171875 -2.24265625 92.1171875 -1.22265625 92.1171875 C-0.89265625 89.1471875 -0.56265625 86.1771875 -0.22265625 83.1171875 C0.76734375 82.7871875 1.75734375 82.4571875 2.77734375 82.1171875 C3.76734375 85.7471875 4.75734375 89.3771875 5.77734375 93.1171875 C6.43734375 92.4571875 7.09734375 91.7971875 7.77734375 91.1171875 C7.77734375 90.1271875 7.77734375 89.1371875 7.77734375 88.1171875 C8.43734375 88.1171875 9.09734375 88.1171875 9.77734375 88.1171875 C10.10734375 85.1471875 10.43734375 82.1771875 10.77734375 79.1171875 C13.05434432 81.39418807 13.29836067 82.53031848 13.96484375 85.6171875 C14.14402344 86.41125 14.32320313 87.2053125 14.5078125 88.0234375 C14.77734375 90.1171875 14.77734375 90.1171875 13.77734375 92.1171875 C14.43734375 92.1171875 15.09734375 92.1171875 15.77734375 92.1171875 C15.77734375 92.7771875 15.77734375 93.4371875 15.77734375 94.1171875 C17.42734375 94.4471875 19.07734375 94.7771875 20.77734375 95.1171875 C20.49890625 94.3746875 20.49890625 94.3746875 20.21484375 93.6171875 C19.57595079 89.96637061 20.22829084 86.77754026 20.77734375 83.1171875 C21.43734375 83.1171875 22.09734375 83.1171875 22.77734375 83.1171875 C22.75414062 82.51390625 22.7309375 81.910625 22.70703125 81.2890625 C22.68898438 80.48984375 22.6709375 79.690625 22.65234375 78.8671875 C22.62914062 78.07828125 22.6059375 77.289375 22.58203125 76.4765625 C22.79450595 73.90986809 23.4908027 72.3255808 24.77734375 70.1171875 C25.43734375 70.1171875 26.09734375 70.1171875 26.77734375 70.1171875 C26.77734375 72.0971875 26.77734375 74.0771875 26.77734375 76.1171875 C27.76734375 76.1171875 28.75734375 76.1171875 29.77734375 76.1171875 C29.71223958 78.13541667 29.64713542 80.15364583 29.58203125 82.171875 C29.59402686 84.35582395 29.59402686 84.35582395 31.77734375 86.1171875 C31.40234375 89.7421875 31.40234375 89.7421875 30.77734375 93.1171875 C31.43734375 93.1171875 32.09734375 93.1171875 32.77734375 93.1171875 C32.77734375 92.4571875 32.77734375 91.7971875 32.77734375 91.1171875 C33.43734375 91.1171875 34.09734375 91.1171875 34.77734375 91.1171875 C34.85082031 89.72693359 34.85082031 89.72693359 34.92578125 88.30859375 C35.00054687 87.11105469 35.0753125 85.91351563 35.15234375 84.6796875 C35.22195312 83.48472656 35.2915625 82.28976563 35.36328125 81.05859375 C35.49992187 80.08792969 35.6365625 79.11726563 35.77734375 78.1171875 C36.43734375 77.7871875 37.09734375 77.4571875 37.77734375 77.1171875 C38.27234375 81.0771875 38.27234375 81.0771875 38.77734375 85.1171875 C39.76734375 85.1171875 40.75734375 85.1171875 41.77734375 85.1171875 C43.09734375 79.1771875 44.41734375 73.2371875 45.77734375 67.1171875 C46.43734375 67.4471875 47.09734375 67.7771875 47.77734375 68.1171875 C48.37089989 70.76579177 48.51943644 73.40916072 48.77734375 76.1171875 C49.76734375 72.4871875 50.75734375 68.8571875 51.77734375 65.1171875 C52.43734375 65.4471875 53.09734375 65.7771875 53.77734375 66.1171875 C54.37089989 68.76579177 54.51943644 71.40916072 54.77734375 74.1171875 C56.75734375 74.6121875 56.75734375 74.6121875 58.77734375 75.1171875 C58.46796875 74.2509375 58.46796875 74.2509375 58.15234375 73.3671875 C57.68489576 70.56249956 58.43802646 69.55947197 59.77734375 67.1171875 C59.77734375 66.1271875 59.77734375 65.1371875 59.77734375 64.1171875 C60.43734375 64.1171875 61.09734375 64.1171875 61.77734375 64.1171875 C61.46796875 63.34375 61.46796875 63.34375 61.15234375 62.5546875 C60.48155276 58.19454605 62.40938669 54.22105869 63.77734375 50.1171875 C64.43734375 50.1171875 65.09734375 50.1171875 65.77734375 50.1171875 C67.09462128 55.1228421 68.13546457 59.98215406 68.77734375 65.1171875 C69.43734375 62.4771875 70.09734375 59.8371875 70.77734375 57.1171875 C71.43734375 57.4471875 72.09734375 57.7771875 72.77734375 58.1171875 C72.77734375 59.4371875 72.77734375 60.7571875 72.77734375 62.1171875 C73.76734375 62.1171875 74.75734375 62.1171875 75.77734375 62.1171875 C75.44734375 60.4671875 75.11734375 58.8171875 74.77734375 57.1171875 C75.43734375 57.1171875 76.09734375 57.1171875 76.77734375 57.1171875 C77.10734375 53.8171875 77.43734375 50.5171875 77.77734375 47.1171875 C78.10734375 47.1171875 78.43734375 47.1171875 78.77734375 47.1171875 C79.76734375 51.4071875 80.75734375 55.6971875 81.77734375 60.1171875 C82.76734375 57.1471875 83.75734375 54.1771875 84.77734375 51.1171875 C85.10734375 51.1171875 85.43734375 51.1171875 85.77734375 51.1171875 C85.89851562 51.75527344 86.0196875 52.39335938 86.14453125 53.05078125 C86.39589844 54.29021484 86.39589844 54.29021484 86.65234375 55.5546875 C86.89597656 56.79025391 86.89597656 56.79025391 87.14453125 58.05078125 C87.45777344 59.07365234 87.45777344 59.07365234 87.77734375 60.1171875 C88.43734375 60.4471875 89.09734375 60.7771875 89.77734375 61.1171875 C89.59171875 60.4159375 89.40609375 59.7146875 89.21484375 58.9921875 C88.72577399 55.77830052 89.11502817 53.28158414 89.77734375 50.1171875 C90.43734375 50.1171875 91.09734375 50.1171875 91.77734375 50.1171875 C90.85236089 47.02702129 90.29599894 45.46418159 87.5703125 43.640625 C86.28060547 43.07214844 86.28060547 43.07214844 84.96484375 42.4921875 C82.36253569 41.31898356 79.89763821 40.19255024 77.4765625 38.67578125 C74.60371485 37.01693 71.73490679 35.85739824 68.64624023 34.66870117 C61.76395179 32.01867192 55.83261347 29.69094642 50.77734375 24.1171875 C50.77734375 23.4571875 50.77734375 22.7971875 50.77734375 22.1171875 C52.90600035 23.07141287 54.53351291 23.85551752 56.13549805 25.57470703 C58.07211499 27.39411906 59.74549629 28.07128313 62.234375 28.984375 C63.09998047 29.31308594 63.96558594 29.64179687 64.85742188 29.98046875 C66.66618925 30.65019105 68.47607421 31.31690337 70.28710938 31.98046875 C75.72196079 34.05127203 79.47324531 36.22239411 83.77734375 40.1171875 C85.96169296 41.41129711 85.96169296 41.41129711 88.02734375 42.3046875 C90.5063992 43.43371469 91.81440609 44.15424984 93.77734375 46.1171875 C94.34254378 48.77256122 94.51522573 51.40863463 94.77734375 54.1171875 C96.42734375 54.4471875 98.07734375 54.7771875 99.77734375 55.1171875 C99.57109375 54.5603125 99.36484375 54.0034375 99.15234375 53.4296875 C98.67039164 50.4576495 99.51169347 48.79738809 100.77734375 46.1171875 C96.7031534 41.60905972 93.75872066 38.78640896 87.77734375 37.1171875 C87.11734375 36.1271875 86.45734375 35.1371875 85.77734375 34.1171875 C84.05253368 33.36868501 82.32535795 32.62423973 80.578125 31.9296875 C77.94038557 30.73955778 75.95267271 29.00628897 73.77734375 27.1171875 C70.10637781 24.03791081 70.10637781 24.03791081 65.77734375 22.1171875 C65.28234375 21.1271875 65.28234375 21.1271875 64.77734375 20.1171875 C63.53984375 20.1790625 63.53984375 20.1790625 62.27734375 20.2421875 C56.59559707 20.03926798 52.35848023 19.42334372 47.90234375 15.7421875 C46.13088246 13.55391179 44.83318015 11.70878593 43.77734375 9.1171875 C43.11734375 9.1171875 42.45734375 9.1171875 41.77734375 9.1171875 C41.52984375 9.9009375 41.28234375 10.6846875 41.02734375 11.4921875 C39.59493895 14.50023758 38.74641985 14.87209107 35.77734375 16.1171875 C35.44734375 16.7771875 35.11734375 17.4371875 34.77734375 18.1171875 C34.11734375 18.1171875 33.45734375 18.1171875 32.77734375 18.1171875 C32.77734375 17.1271875 32.77734375 16.1371875 32.77734375 15.1171875 C32.17921875 14.9728125 31.58109375 14.8284375 30.96484375 14.6796875 C25.97614409 13.39687902 25.97614409 13.39687902 24.64453125 11.5234375 C24.15339844 10.57984375 24.15339844 10.57984375 23.65234375 9.6171875 C22.13397921 6.37735979 22.13397921 6.37735979 20.77734375 5.1171875 C17.47378481 5.085335 14.18120104 5.18581673 10.87890625 5.27734375 C7.77734375 5.1171875 7.77734375 5.1171875 4.77734375 3.1171875 C1.81987883 2.53373274 1.81987883 2.53373274 -1.22265625 3.1171875 C-4.84791903 6.53529241 -6.32615489 10.58207556 -8.22265625 15.1171875 C-8.99609375 16.138125 -8.99609375 16.138125 -9.78515625 17.1796875 C-11.64097166 19.68100392 -12.27059285 22.14898983 -13.22265625 25.1171875 C-16.14824239 33.57998057 -16.14824239 33.57998057 -20.34765625 35.6796875 C-23.22265625 36.1171875 -23.22265625 36.1171875 -25.22265625 36.1171875 C-25.22265625 37.1071875 -25.22265625 38.0971875 -25.22265625 39.1171875 C-30.74974236 40.05938876 -36.06023977 40.23834899 -41.66015625 40.1796875 C-42.48708984 40.17517578 -43.31402344 40.17066406 -44.16601562 40.16601562 C-46.18492771 40.15434561 -48.20380199 40.13641468 -50.22265625 40.1171875 C-49.56265625 42.4271875 -48.90265625 44.7371875 -48.22265625 47.1171875 C-47.23265625 46.1271875 -46.24265625 45.1371875 -45.22265625 44.1171875 C-43.38863321 50.08387578 -41.68376373 56.04797183 -40.22265625 62.1171875 C-43.17930144 63.5955101 -45.96495362 63.17751533 -49.22265625 63.1171875 C-49.77613265 61.04165102 -50.22265625 59.27352786 -50.22265625 57.1171875 C-51.31578125 57.3234375 -52.40890625 57.5296875 -53.53515625 57.7421875 C-57.22265625 58.1171875 -57.22265625 58.1171875 -60.22265625 56.1171875 C-59.56265625 54.7971875 -58.90265625 53.4771875 -58.22265625 52.1171875 C-57.56265625 52.1171875 -56.90265625 52.1171875 -56.22265625 52.1171875 C-56.55265625 49.8071875 -56.88265625 47.4971875 -57.22265625 45.1171875 C-56.56265625 45.1171875 -55.90265625 45.1171875 -55.22265625 45.1171875 C-54.89265625 41.4871875 -54.56265625 37.8571875 -54.22265625 34.1171875 C-53.56265625 34.1171875 -52.90265625 34.1171875 -52.22265625 34.1171875 C-51.89265625 35.4371875 -51.56265625 36.7571875 -51.22265625 38.1171875 C-47.3049072 38.06533231 -43.3893662 37.97025881 -39.47265625 37.8671875 C-38.36148438 37.85300781 -37.2503125 37.83882812 -36.10546875 37.82421875 C-35.03554687 37.79199219 -33.965625 37.75976562 -32.86328125 37.7265625 C-31.87875977 37.70561523 -30.89423828 37.68466797 -29.87988281 37.66308594 C-26.56045276 36.98114496 -25.47527252 35.56568345 -23.22265625 33.1171875 C-20.47265625 32.8671875 -20.47265625 32.8671875 -18.22265625 33.1171875 C-18.14015625 32.3128125 -18.05765625 31.5084375 -17.97265625 30.6796875 C-16.49326435 23.65257599 -13.20563418 18.02741281 -9.22265625 12.1171875 C-8.72765625 10.9415625 -8.23265625 9.7659375 -7.72265625 8.5546875 C-4.0836538 0.21530688 -4.0836538 0.21530688 0 0 Z " fill="#2B2829" transform="translate(108.22265625,21.8828125)"/>
<path d="M0 0 C1.83494434 1.24257188 1.83494434 1.24257188 4.65625 2.6484375 C5.64625 3.36 5.64625 3.36 6.65625 4.0859375 C6.65625 5.4059375 6.65625 6.7259375 6.65625 8.0859375 C5.99625 8.0859375 5.33625 8.0859375 4.65625 8.0859375 C4.841875 8.6015625 5.0275 9.1171875 5.21875 9.6484375 C5.81044517 12.94502489 5.223517 15.80839485 4.65625 19.0859375 C3.17125 18.5909375 3.17125 18.5909375 1.65625 18.0859375 C0.62493265 15.47731126 0.22567551 12.84546115 -0.34375 10.0859375 C-1.33375 13.0559375 -2.32375 16.0259375 -3.34375 19.0859375 C-5.01280241 15.74783268 -6.2178886 12.62435905 -7.34375 9.0859375 C-9.15977517 13.62426503 -9.15977517 13.62426503 -8.34375 18.0859375 C-8.67375 18.7459375 -9.00375 19.4059375 -9.34375 20.0859375 C-10.33375 20.0859375 -11.32375 20.0859375 -12.34375 20.0859375 C-12.83875 18.1059375 -12.83875 18.1059375 -13.34375 16.0859375 C-14.33375 18.7259375 -15.32375 21.3659375 -16.34375 24.0859375 C-16.67375 24.0859375 -17.00375 24.0859375 -17.34375 24.0859375 C-18.33375 16.1659375 -18.33375 16.1659375 -19.34375 8.0859375 C-20.00375 8.0859375 -20.66375 8.0859375 -21.34375 8.0859375 C-21.40433594 8.67761719 -21.46492188 9.26929687 -21.52734375 9.87890625 C-21.96387371 13.99571958 -22.43046346 18.04138283 -23.34375 22.0859375 C-24.00375 22.0859375 -24.66375 22.0859375 -25.34375 22.0859375 C-25.034375 22.9521875 -25.034375 22.9521875 -24.71875 23.8359375 C-24.25130201 26.64062544 -25.00443271 27.64365303 -26.34375 30.0859375 C-26.34375 31.0759375 -26.34375 32.0659375 -26.34375 33.0859375 C-27.00375 33.0859375 -27.66375 33.0859375 -28.34375 33.0859375 C-28.83875 34.0759375 -28.83875 34.0759375 -29.34375 35.0859375 C-31.90991632 31.23668802 -31.89472676 28.6510071 -32.34375 24.0859375 C-33.33375 27.7159375 -34.32375 31.3459375 -35.34375 35.0859375 C-36.00375 34.7559375 -36.66375 34.4259375 -37.34375 34.0859375 C-37.93730614 31.43733323 -38.08584269 28.79396428 -38.34375 26.0859375 C-38.62089844 27.14554688 -38.89804688 28.20515625 -39.18359375 29.296875 C-39.549364 30.68492619 -39.91525572 32.07294537 -40.28125 33.4609375 C-40.46365234 34.15960938 -40.64605469 34.85828125 -40.83398438 35.578125 C-42.23046875 40.859375 -42.23046875 40.859375 -43.34375 43.0859375 C-44.33375 43.0859375 -45.32375 43.0859375 -46.34375 43.0859375 C-47.00375 40.7759375 -47.66375 38.4659375 -48.34375 36.0859375 C-49.00375 40.3759375 -49.66375 44.6659375 -50.34375 49.0859375 C-51.00375 49.0859375 -51.66375 49.0859375 -52.34375 49.0859375 C-52.34375 49.7459375 -52.34375 50.4059375 -52.34375 51.0859375 C-53.00375 51.0859375 -53.66375 51.0859375 -54.34375 51.0859375 C-54.3025 49.9721875 -54.26125 48.8584375 -54.21875 47.7109375 C-53.93253141 44.04227725 -53.93253141 44.04227725 -56.34375 42.0859375 C-56.31087417 39.35724343 -55.77977229 36.7892757 -55.34375 34.0859375 C-56.33375 34.0859375 -57.32375 34.0859375 -58.34375 34.0859375 C-58.34375 32.1059375 -58.34375 30.1259375 -58.34375 28.0859375 C-59.00375 28.0859375 -59.66375 28.0859375 -60.34375 28.0859375 C-61.00375 32.3759375 -61.66375 36.6659375 -62.34375 41.0859375 C-63.00375 41.0859375 -63.66375 41.0859375 -64.34375 41.0859375 C-64.34375 45.0459375 -64.34375 49.0059375 -64.34375 53.0859375 C-65.99375 52.7559375 -67.64375 52.4259375 -69.34375 52.0859375 C-69.34375 51.4259375 -69.34375 50.7659375 -69.34375 50.0859375 C-70.00375 50.0859375 -70.66375 50.0859375 -71.34375 50.0859375 C-72.00375 46.1259375 -72.66375 42.1659375 -73.34375 38.0859375 C-74.00375 40.7259375 -74.66375 43.3659375 -75.34375 46.0859375 C-76.00375 46.0859375 -76.66375 46.0859375 -77.34375 46.0859375 C-77.01375 47.4059375 -76.68375 48.7259375 -76.34375 50.0859375 C-77.82875 50.5809375 -77.82875 50.5809375 -79.34375 51.0859375 C-79.84742757 49.62887024 -80.34657556 48.17023654 -80.84375 46.7109375 C-81.1221875 45.89882812 -81.400625 45.08671875 -81.6875 44.25 C-82.34375 42.0859375 -82.34375 42.0859375 -82.34375 40.0859375 C-83.33375 40.5809375 -83.33375 40.5809375 -84.34375 41.0859375 C-85.03104254 43.20440035 -85.03104254 43.20440035 -85.46875 45.6484375 C-85.63632813 46.47472656 -85.80390625 47.30101562 -85.9765625 48.15234375 C-86.09773438 48.79042969 -86.21890625 49.42851563 -86.34375 50.0859375 C-87.33375 50.0859375 -88.32375 50.0859375 -89.34375 50.0859375 C-89.34375 48.7659375 -89.34375 47.4459375 -89.34375 46.0859375 C-90.00375 45.7559375 -90.66375 45.4259375 -91.34375 45.0859375 C-91.01375 42.7759375 -90.68375 40.4659375 -90.34375 38.0859375 C-91.33375 38.0859375 -92.32375 38.0859375 -93.34375 38.0859375 C-93.34375 36.7659375 -93.34375 35.4459375 -93.34375 34.0859375 C-95.98375 34.4159375 -98.62375 34.7459375 -101.34375 35.0859375 C-101.01375 34.0959375 -100.68375 33.1059375 -100.34375 32.0859375 C-97.71875 31.27734375 -97.71875 31.27734375 -94.34375 30.6484375 C-88.53554893 29.42099632 -83.60317549 27.80315382 -78.34375 25.0859375 C-77.49425781 24.65410156 -76.64476563 24.22226563 -75.76953125 23.77734375 C-62.6958171 17.10110178 -62.6958171 17.10110178 -52.34375 7.0859375 C-51.68375 7.0859375 -51.02375 7.0859375 -50.34375 7.0859375 C-49.84875 8.0759375 -49.84875 8.0759375 -49.34375 9.0859375 C-46.37375 9.0859375 -43.40375 9.0859375 -40.34375 9.0859375 C-40.34375 8.4259375 -40.34375 7.7659375 -40.34375 7.0859375 C-41.00375 6.7559375 -41.66375 6.4259375 -42.34375 6.0859375 C-41.725 5.5703125 -41.10625 5.0546875 -40.46875 4.5234375 C-38.08086606 2.16669251 -38.08086606 2.16669251 -37.53125 -1.3515625 C-35.96715809 -6.04383822 -33.6350346 -7.67998809 -29.34375 -9.9140625 C-19.54404142 -13.18063203 -7.91809936 -5.26754915 0 0 Z " fill="#F5F5F5" transform="translate(193.34375,63.9140625)"/>
<path d="M0 0 C6.27690438 0.61674813 6.27690438 0.61674813 7.77734375 2.1171875 C9.81948007 1.97808546 11.86106158 1.83080748 13.90234375 1.6796875 C20.03343414 1.59200414 20.03343414 1.59200414 23.1953125 3.82421875 C27.77734375 9.0675741 27.77734375 9.0675741 27.77734375 12.1171875 C32.72734375 12.6121875 32.72734375 12.6121875 37.77734375 13.1171875 C38.18984375 12.3128125 38.60234375 11.5084375 39.02734375 10.6796875 C40.77734375 8.1171875 40.77734375 8.1171875 42.96484375 7.3046875 C43.56296875 7.2428125 44.16109375 7.1809375 44.77734375 7.1171875 C45.27234375 9.0971875 45.27234375 9.0971875 45.77734375 11.1171875 C47.09734375 11.4471875 48.41734375 11.7771875 49.77734375 12.1171875 C49.77734375 12.7771875 49.77734375 13.4371875 49.77734375 14.1171875 C50.43734375 14.1171875 51.09734375 14.1171875 51.77734375 14.1171875 C51.77734375 14.7771875 51.77734375 15.4371875 51.77734375 16.1171875 C52.63457031 16.13136719 53.49179688 16.14554688 54.375 16.16015625 C61.8009928 16.46992145 66.27500132 16.99000478 71.77734375 22.1171875 C72.10734375 22.7771875 72.43734375 23.4371875 72.77734375 24.1171875 C73.51984375 24.4059375 74.26234375 24.6946875 75.02734375 24.9921875 C78.13884821 26.26507569 80.19222825 27.98446721 82.77734375 30.1171875 C84.10765625 30.8596875 84.10765625 30.8596875 85.46484375 31.6171875 C87.96936214 33.24173997 88.73412189 34.36687533 89.77734375 37.1171875 C91.10765625 36.9625 91.10765625 36.9625 92.46484375 36.8046875 C96.80086836 37.21374643 97.89397903 39.00003646 100.77734375 42.1171875 C101.76734375 42.1171875 102.75734375 42.1171875 103.77734375 42.1171875 C103.77734375 43.1071875 103.77734375 44.0971875 103.77734375 45.1171875 C104.89109375 45.1996875 106.00484375 45.2821875 107.15234375 45.3671875 C110.77734375 46.1171875 110.77734375 46.1171875 112.46484375 47.7421875 C112.97369489 51.60945619 110.82111306 53.87120095 108.77734375 57.1171875 C108.77734375 57.7771875 108.77734375 58.4371875 108.77734375 59.1171875 C109.43734375 59.7771875 110.09734375 60.4371875 110.77734375 61.1171875 C110.97265625 63.5 110.97265625 63.5 110.90234375 66.2421875 C110.88429687 67.15226562 110.86625 68.06234375 110.84765625 69 C110.82445312 69.69867188 110.80125 70.39734375 110.77734375 71.1171875 C107.31234375 71.6121875 107.31234375 71.6121875 103.77734375 72.1171875 C103.77734375 72.7771875 103.77734375 73.4371875 103.77734375 74.1171875 C103.11734375 74.1171875 102.45734375 74.1171875 101.77734375 74.1171875 C101.77734375 73.4571875 101.77734375 72.7971875 101.77734375 72.1171875 C95.75522256 73.60472528 95.75522256 73.60472528 90.77734375 77.1171875 C90.44734375 78.1071875 90.11734375 79.0971875 89.77734375 80.1171875 C89.11734375 80.1171875 88.45734375 80.1171875 87.77734375 80.1171875 C87.38837214 78.49547511 87.01656077 76.86963825 86.65234375 75.2421875 C86.33910156 73.88480469 86.33910156 73.88480469 86.01953125 72.5 C85.89964844 71.32050781 85.89964844 71.32050781 85.77734375 70.1171875 C86.43734375 69.4571875 87.09734375 68.7971875 87.77734375 68.1171875 C87.44734375 67.4571875 87.11734375 66.7971875 86.77734375 66.1171875 C87.71484375 63.9921875 87.71484375 63.9921875 88.77734375 62.1171875 C90.77734375 63.1171875 90.77734375 63.1171875 91.77734375 65.1171875 C92.76734375 64.7871875 93.75734375 64.4571875 94.77734375 64.1171875 C95.10734375 64.1171875 95.43734375 64.1171875 95.77734375 64.1171875 C95.77734375 63.4571875 95.77734375 62.7971875 95.77734375 62.1171875 C95.11734375 62.1171875 94.45734375 62.1171875 93.77734375 62.1171875 C94.10734375 59.8071875 94.43734375 57.4971875 94.77734375 55.1171875 C96.42734375 55.1171875 98.07734375 55.1171875 99.77734375 55.1171875 C99.57109375 54.5603125 99.36484375 54.0034375 99.15234375 53.4296875 C98.67039164 50.4576495 99.51169347 48.79738809 100.77734375 46.1171875 C96.7031534 41.60905972 93.75872066 38.78640896 87.77734375 37.1171875 C87.11734375 36.1271875 86.45734375 35.1371875 85.77734375 34.1171875 C84.05253368 33.36868501 82.32535795 32.62423973 80.578125 31.9296875 C77.94038557 30.73955778 75.95267271 29.00628897 73.77734375 27.1171875 C70.10637781 24.03791081 70.10637781 24.03791081 65.77734375 22.1171875 C65.28234375 21.1271875 65.28234375 21.1271875 64.77734375 20.1171875 C63.53984375 20.1790625 63.53984375 20.1790625 62.27734375 20.2421875 C56.59559707 20.03926798 52.35848023 19.42334372 47.90234375 15.7421875 C46.13088246 13.55391179 44.83318015 11.70878593 43.77734375 9.1171875 C43.11734375 9.1171875 42.45734375 9.1171875 41.77734375 9.1171875 C41.52984375 9.9009375 41.28234375 10.6846875 41.02734375 11.4921875 C39.59493895 14.50023758 38.74641985 14.87209107 35.77734375 16.1171875 C35.44734375 16.7771875 35.11734375 17.4371875 34.77734375 18.1171875 C34.11734375 18.1171875 33.45734375 18.1171875 32.77734375 18.1171875 C32.77734375 17.1271875 32.77734375 16.1371875 32.77734375 15.1171875 C32.17921875 14.9728125 31.58109375 14.8284375 30.96484375 14.6796875 C25.97614409 13.39687902 25.97614409 13.39687902 24.64453125 11.5234375 C24.15339844 10.57984375 24.15339844 10.57984375 23.65234375 9.6171875 C22.13397921 6.37735979 22.13397921 6.37735979 20.77734375 5.1171875 C17.47378481 5.085335 14.18120104 5.18581673 10.87890625 5.27734375 C7.77734375 5.1171875 7.77734375 5.1171875 4.77734375 3.1171875 C1.81987883 2.53373274 1.81987883 2.53373274 -1.22265625 3.1171875 C-4.84791903 6.53529241 -6.32615489 10.58207556 -8.22265625 15.1171875 C-8.99609375 16.138125 -8.99609375 16.138125 -9.78515625 17.1796875 C-11.64097166 19.68100392 -12.27059285 22.14898983 -13.22265625 25.1171875 C-16.14824239 33.57998057 -16.14824239 33.57998057 -20.34765625 35.6796875 C-23.22265625 36.1171875 -23.22265625 36.1171875 -25.22265625 36.1171875 C-25.22265625 37.1071875 -25.22265625 38.0971875 -25.22265625 39.1171875 C-30.74974236 40.05938876 -36.06023977 40.23834899 -41.66015625 40.1796875 C-42.48708984 40.17517578 -43.31402344 40.17066406 -44.16601562 40.16601562 C-46.18492771 40.15434561 -48.20380199 40.13641468 -50.22265625 40.1171875 C-49.56265625 42.4271875 -48.90265625 44.7371875 -48.22265625 47.1171875 C-47.23265625 46.1271875 -46.24265625 45.1371875 -45.22265625 44.1171875 C-43.38863321 50.08387578 -41.68376373 56.04797183 -40.22265625 62.1171875 C-43.17930144 63.5955101 -45.96495362 63.17751533 -49.22265625 63.1171875 C-49.77613265 61.04165102 -50.22265625 59.27352786 -50.22265625 57.1171875 C-51.31578125 57.3234375 -52.40890625 57.5296875 -53.53515625 57.7421875 C-57.22265625 58.1171875 -57.22265625 58.1171875 -60.22265625 56.1171875 C-59.56265625 54.7971875 -58.90265625 53.4771875 -58.22265625 52.1171875 C-57.56265625 52.1171875 -56.90265625 52.1171875 -56.22265625 52.1171875 C-56.55265625 49.8071875 -56.88265625 47.4971875 -57.22265625 45.1171875 C-56.56265625 45.1171875 -55.90265625 45.1171875 -55.22265625 45.1171875 C-54.89265625 41.4871875 -54.56265625 37.8571875 -54.22265625 34.1171875 C-53.56265625 34.1171875 -52.90265625 34.1171875 -52.22265625 34.1171875 C-51.89265625 35.4371875 -51.56265625 36.7571875 -51.22265625 38.1171875 C-47.3049072 38.06533231 -43.3893662 37.97025881 -39.47265625 37.8671875 C-38.36148438 37.85300781 -37.2503125 37.83882812 -36.10546875 37.82421875 C-35.03554687 37.79199219 -33.965625 37.75976562 -32.86328125 37.7265625 C-31.87875977 37.70561523 -30.89423828 37.68466797 -29.87988281 37.66308594 C-26.56045276 36.98114496 -25.47527252 35.56568345 -23.22265625 33.1171875 C-20.47265625 32.8671875 -20.47265625 32.8671875 -18.22265625 33.1171875 C-18.14015625 32.3128125 -18.05765625 31.5084375 -17.97265625 30.6796875 C-16.49326435 23.65257599 -13.20563418 18.02741281 -9.22265625 12.1171875 C-8.72765625 10.9415625 -8.23265625 9.7659375 -7.72265625 8.5546875 C-4.0836538 0.21530688 -4.0836538 0.21530688 0 0 Z " fill="#5D5B5C" transform="translate(108.22265625,21.8828125)"/>
<path d="M0 0 C2.1286566 0.95422537 3.75616916 1.73833002 5.3581543 3.45751953 C7.29477124 5.27693156 8.96815254 5.95409563 11.45703125 6.8671875 C12.32263672 7.19589844 13.18824219 7.52460937 14.08007812 7.86328125 C15.8888455 8.53300355 17.69873046 9.19971587 19.50976562 9.86328125 C24.94461704 11.93408453 28.69590156 14.10520661 33 18 C35.18434921 19.29410961 35.18434921 19.29410961 37.25 20.1875 C39.72905545 21.31652719 41.03706234 22.03706234 43 24 C43.44921875 27.1875 43.44921875 27.1875 43.6875 31 C43.77386719 32.258125 43.86023438 33.51625 43.94921875 34.8125 C44 38 44 38 43 40 C43.66 40 44.32 40 45 40 C45.495 42.475 45.495 42.475 46 45 C45.01 44.34 44.02 43.68 43 43 C40.84725052 43.30840599 40.84725052 43.30840599 39 44 C38.67 43.01 38.34 42.02 38 41 C38 42.32 38 43.64 38 45 C37.66484375 45.64582031 37.3296875 46.29164062 36.984375 46.95703125 C35.77480911 49.46736045 35.90553351 50.94536543 36.25 53.6875 C36.33765625 54.47511719 36.4253125 55.26273438 36.515625 56.07421875 C36.67546875 56.70972656 36.8353125 57.34523437 37 58 C37.99 58.495 37.99 58.495 39 59 C36.14632411 60.90245059 34.88682058 60.99024315 31.375 60.6875 C25.38384264 60.5207702 21.53382631 64.52922924 17 68 C15.44380206 68.98915196 13.88154454 69.96885516 12.3125 70.9375 C8.34850827 73.53580553 5.52252585 76.54907818 2.60546875 80.265625 C0.87529444 82.13471842 -0.67209538 83.01026181 -3 84 C-1 81.66666667 1 79.33333333 3 77 C3.41572266 76.4635083 3.83144531 75.9270166 4.25976562 75.37426758 C8.02940752 70.65772754 12.02995194 67.78104381 17.25 64.8125 C18.67737678 63.99521168 20.09952088 63.16869951 21.515625 62.33203125 C22.13727539 61.97858643 22.75892578 61.6251416 23.39941406 61.26098633 C25.33140582 59.73890923 26.05322559 58.24430452 27 56 C27.66 56 28.32 56 29 56 C29 54.68 29 53.36 29 52 C22.68524179 55.32852676 16.61466094 58.78170386 10.77734375 62.8984375 C9 64 9 64 7 64 C6.505 64.99 6.505 64.99 6 66 C3.67409146 62.36576791 3.83734167 59.22911669 4 55 C4.66 55 5.32 55 6 55 C6 54.34 6 53.68 6 53 C6.66 53 7.32 53 8 53 C7.79375 52.4225 7.5875 51.845 7.375 51.25 C6.90755201 48.44531206 7.66068271 47.44228447 9 45 C9 44.01 9 43.02 9 42 C9.66 42 10.32 42 11 42 C10.79375 41.484375 10.5875 40.96875 10.375 40.4375 C9.70420901 36.07735855 11.63204294 32.10387119 13 28 C13.66 28 14.32 28 15 28 C16.31727753 33.0056546 17.35812082 37.86496656 18 43 C18.66 40.36 19.32 37.72 20 35 C20.66 35.33 21.32 35.66 22 36 C22 37.32 22 38.64 22 40 C22.99 40 23.98 40 25 40 C24.505 37.525 24.505 37.525 24 35 C24.66 35 25.32 35 26 35 C26.33 31.7 26.66 28.4 27 25 C27.33 25 27.66 25 28 25 C28.99 29.29 29.98 33.58 31 38 C31.99 35.03 32.98 32.06 34 29 C34.33 29 34.66 29 35 29 C35.18175781 29.95712891 35.18175781 29.95712891 35.3671875 30.93359375 C35.61855469 32.17302734 35.61855469 32.17302734 35.875 33.4375 C36.03742188 34.26121094 36.19984375 35.08492187 36.3671875 35.93359375 C36.57601562 36.61550781 36.78484375 37.29742187 37 38 C37.99 38.495 37.99 38.495 39 39 C38.814375 38.29875 38.62875 37.5975 38.4375 36.875 C37.94843024 33.66111302 38.33768442 31.16439664 39 28 C39.66 28 40.32 28 41 28 C40.07501714 24.90983379 39.51865519 23.34699409 36.79296875 21.5234375 C35.50326172 20.95496094 35.50326172 20.95496094 34.1875 20.375 C31.58519194 19.20179606 29.12029446 18.07536274 26.69921875 16.55859375 C23.8263711 14.8997425 20.95756304 13.74021074 17.86889648 12.55151367 C10.98660804 9.90148442 5.05526972 7.57375892 0 2 C0 1.34 0 0.68 0 0 Z " fill="#2B2829" transform="translate(159,44)"/>
<path d="M0 0 C3.27642756 0.25866533 4.60820723 0.55416685 6.8125 3.0625 C7.204375 3.701875 7.59625 4.34125 8 5 C8.680625 4.175 9.36125 3.35 10.0625 2.5 C13 0 13 0 16.5 -0.625 C20.84433642 0.15077436 22.26201776 1.61778665 25 5 C27.40389187 9.80778374 26.8618088 17.32080167 25.24609375 22.34375 C23.91239792 24.81239483 22.3854206 26.69432159 20.1875 28.4375 C17.03304363 29.24864592 14.23955481 29.23560399 11 29 C10.01 28.34 9.02 27.68 8 27 C8.33 30.96 8.66 34.92 9 39 C7.0085944 39.38133299 5.00720923 39.71325582 3 40 C1.04901915 38.04901915 1.74584892 34.35325071 1.68359375 31.68359375 C1.66281265 30.95253922 1.64203156 30.22148468 1.62062073 29.46827698 C1.55504976 27.12478344 1.49620568 24.78117461 1.4375 22.4375 C1.39432192 20.85220145 1.35070787 19.26691471 1.30664062 17.68164062 C1.1993608 13.78787963 1.0981151 9.89400228 1 6 C0.01 5.67 -0.98 5.34 -2 5 C-1.125 1.125 -1.125 1.125 0 0 Z " fill="#121212" transform="translate(125,176)"/>
<path d="M0 0 C4.38544865 2.19272433 7.23315916 4.38658225 9 9 C9.77075044 14.52371146 9.95614008 19.35210327 6.6875 24.0625 C2.3760658 28.77499785 2.3760658 28.77499785 -1.26953125 29.37109375 C-8.98481876 29.57256823 -8.98481876 29.57256823 -12.5 26.8125 C-17.02168701 21.72560211 -17.3919239 17.1932112 -17.25 10.59375 C-16.81764277 6.10804375 -15.2177064 4.03863193 -11.875 1.1875 C-7.83285584 -0.48208128 -4.31174193 -0.68440348 0 0 Z " fill="#151515" transform="translate(172,176)"/>
<path d="M0 0 C2.92288684 2.02136019 4.66682763 3.55260357 5.48291016 7.09790039 C5.71552662 9.51402017 5.79526005 11.8854985 5.8125 14.3125 C5.83763672 15.14845703 5.86277344 15.98441406 5.88867188 16.84570312 C5.9472699 18.89663409 5.97656493 20.94836593 6 23 C6.99 23.33 7.98 23.66 9 24 C8.125 27.875 8.125 27.875 7 29 C4.6875 29.375 4.6875 29.375 2 29 C-0.3125 26.5 -0.3125 26.5 -2 24 C-2.78375 24.639375 -3.5675 25.27875 -4.375 25.9375 C-8.16080206 28.91205876 -10.17885355 29.39356298 -15 29 C-16.875 27.9375 -16.875 27.9375 -18 26 C-18.5 22.625 -18.5 22.625 -18 19 C-15.45862841 15.84045695 -13.85377341 14.28459114 -10 13 C-8.43881572 12.93259135 -6.8749748 12.91485544 -5.3125 12.9375 C-4.10013672 12.95103516 -4.10013672 12.95103516 -2.86328125 12.96484375 C-1.94095703 12.98224609 -1.94095703 12.98224609 -1 13 C-1.30798326 11.51988629 -1.621518 10.04092675 -1.9375 8.5625 C-2.11152344 7.73878906 -2.28554687 6.91507813 -2.46484375 6.06640625 C-2.80752994 4.02338796 -2.80752994 4.02338796 -4 3 C-5.66617115 2.95936168 -7.33388095 2.957279 -9 3 C-9 5.64 -9 8.28 -9 11 C-11.875 11.125 -11.875 11.125 -15 11 C-17 9 -17 9 -17.4375 6.625 C-17 4 -17 4 -15.25 1.6875 C-10.39851983 -0.83153778 -5.34363754 -1.14405006 0 0 Z " fill="#0A0A0A" transform="translate(88,176)"/>
<path d="M0 0 C6.4 -0.36923077 6.4 -0.36923077 9.4375 1.5 C9.953125 1.995 10.46875 2.49 11 3 C10.566875 4.051875 10.566875 4.051875 10.125 5.125 C8.97866412 8.05452503 7.97374346 11.00921653 7 14 C7.66 14.66 8.32 15.32 9 16 C9.1953125 18.3828125 9.1953125 18.3828125 9.125 21.125 C9.09792969 22.49011719 9.09792969 22.49011719 9.0703125 23.8828125 C9.04710937 24.58148438 9.02390625 25.28015625 9 26 C6.69 26.33 4.38 26.66 2 27 C2 27.66 2 28.32 2 29 C1.34 29 0.68 29 0 29 C0 28.34 0 27.68 0 27 C-6.02212119 28.48753778 -6.02212119 28.48753778 -11 32 C-11.33 32.99 -11.66 33.98 -12 35 C-12.66 35 -13.32 35 -14 35 C-14.38897161 33.37828761 -14.76078298 31.75245075 -15.125 30.125 C-15.33382812 29.22007813 -15.54265625 28.31515625 -15.7578125 27.3828125 C-15.83773437 26.59648438 -15.91765625 25.81015625 -16 25 C-15.34 24.34 -14.68 23.68 -14 23 C-14.33 22.34 -14.66 21.68 -15 21 C-14.0625 18.875 -14.0625 18.875 -13 17 C-11 18 -11 18 -10 20 C-9.01 19.67 -8.02 19.34 -7 19 C-6.67 19 -6.34 19 -6 19 C-6 18.34 -6 17.68 -6 17 C-6.66 17 -7.32 17 -8 17 C-7.67 14.69 -7.34 12.38 -7 10 C-5.35 10 -3.7 10 -2 10 C-2.226875 9.46375 -2.45375 8.9275 -2.6875 8.375 C-3.13958145 4.93918099 -1.67178015 2.94233306 0 0 Z " fill="#2C292A" transform="translate(210,67)"/>
<path d="M0 0 C3.4054732 1.67286403 5.37356828 2.6688326 7 6.125 C7 6.74375 7 7.3625 7 8 C6.34 8.66 5.68 9.32 5 10 C3.68 10 2.36 10 1 10 C0.5359375 8.7934375 0.5359375 8.7934375 0.0625 7.5625 C-0.76335345 5.10919595 -0.76335345 5.10919595 -2 4 C-4.9157691 3.58297878 -4.9157691 3.58297878 -8 4 C-11.54697827 7.42466867 -11.93915562 10.89778057 -12.203125 15.6796875 C-12.2242723 17.07805239 -12.23973587 18.47651288 -12.25 19.875 C-12.270625 20.56980469 -12.29125 21.26460937 -12.3125 21.98046875 C-12.34847024 26.75551809 -11.46613194 29.92714573 -9 34 C-7.89471558 35.31968178 -7.89471558 35.31968178 -5.125 35.25 C-2.06433859 35.26737593 -2.06433859 35.26737593 -0.1875 33.75 C1.11258722 31.83408198 1.60856977 30.27029534 2 28 C3.65 28.33 5.3 28.66 7 29 C7.33 30.65 7.66 32.3 8 34 C2.92078564 37.97256989 -1.1536413 39.80614164 -7.671875 39.40625 C-12.1037748 38.63289836 -14.63761129 36.89882927 -17.25 33.2578125 C-21.00253309 26.35210925 -20.97786256 18.64587368 -20 11 C-18.44499864 6.69825444 -16.14763883 4.04926979 -12.8125 1 C-8.51082541 -0.5294843 -4.50769083 -0.65527135 0 0 Z " fill="#101010" transform="translate(58,166)"/>
<path d="M0 0 C1.546875 0.00193359 1.546875 0.00193359 3.125 0.00390625 C6.27182056 0.47849468 7.67018047 1.32610105 10 3.4375 C9.67 5.0875 9.34 6.7375 9 8.4375 C7.68 8.4375 6.36 8.4375 5 8.4375 C4.7215625 7.4784375 4.7215625 7.4784375 4.4375 6.5 C3.05753944 4.01623787 3.05753944 4.01623787 -0.625 3.6875 C-1.73875 3.605 -2.8525 3.5225 -4 3.4375 C-3.81019413 6.29290944 -3.81019413 6.29290944 -2 9.4375 C0.73345482 11.24846696 3.52483306 12.69965513 6.46875 14.140625 C9 15.4375 9 15.4375 11 17.4375 C11.4375 20.25 11.4375 20.25 11 23.4375 C7.89414326 27.21489333 5.60554178 29.17216102 0.66015625 29.67578125 C-6.31914894 29.87518997 -6.31914894 29.87518997 -9.625 27.75 C-11.21961817 25.06814217 -11.34098943 23.50640491 -11 20.4375 C-9.35 20.1075 -7.7 19.7775 -6 19.4375 C-5.34 21.4175 -4.68 23.3975 -4 25.4375 C-1.03 25.4375 1.94 25.4375 5 25.4375 C4.04849591 22.09590825 3.40221047 20.7068817 0.46875 18.7421875 C-0.5109375 18.27039063 -1.490625 17.79859375 -2.5 17.3125 C-7.80519481 14.72970779 -7.80519481 14.72970779 -10 11.4375 C-10.66676699 5.3254693 -10.66676699 5.3254693 -8.3515625 2.2421875 C-5.37725203 -0.04042286 -3.71385907 -0.06963486 0 0 Z " fill="#0C0C0C" transform="translate(206,175.5625)"/>
<path d="M0 0 C0 1.32 0 2.64 0 4 C-0.66 4.33 -1.32 4.66 -2 5 C-2.32677734 5.88171875 -2.32677734 5.88171875 -2.66015625 6.78125 C-4.7165044 10.18651457 -8.06134136 11.59471598 -11.4375 13.5 C-17.18223281 16.90186175 -22.01286808 20.47656213 -26.5 25.4375 C-26.96204834 25.94539063 -27.42409668 26.45328125 -27.90014648 26.9765625 C-30.54943345 30.03226833 -30.54943345 30.03226833 -31 34 C-32.53125 35.82421875 -32.53125 35.82421875 -34.5 37.6875 C-35.1496875 38.31011719 -35.799375 38.93273437 -36.46875 39.57421875 C-36.9740625 40.04472656 -37.479375 40.51523438 -38 41 C-39.32 40.34 -40.64 39.68 -42 39 C-41.34 38.01 -40.68 37.02 -40 36 C-40.99 35.67 -41.98 35.34 -43 35 C-42.67 34.34 -42.34 33.68 -42 33 C-41.236875 33.020625 -40.47375 33.04125 -39.6875 33.0625 C-36.89814214 33.12942841 -36.89814214 33.12942841 -34 32 C-34.66 29.36 -35.32 26.72 -36 24 C-32.535 23.505 -32.535 23.505 -29 23 C-28.773125 22.29875 -28.54625 21.5975 -28.3125 20.875 C-24.90399622 13.40875362 -19.16154452 9.7894705 -12.375 5.625 C-11.08722656 4.80708984 -11.08722656 4.80708984 -9.7734375 3.97265625 C-3.40125705 0 -3.40125705 0 0 0 Z " fill="#E9E9E9" transform="translate(188,96)"/>
<path d="M0 0 C3.62528568 -0.20140476 5.86501708 0.14223235 9 2 C9.66 1.34 10.32 0.68 11 0 C17.05240175 -0.55021834 17.05240175 -0.55021834 19.9375 1.125 C21.46154563 3.81449229 21.26357307 5.96890973 21 9 C20 10 20 10 17.4375 10.0625 C16.633125 10.041875 15.82875 10.02125 15 10 C15 7.69 15 5.38 15 3 C13.68 3 12.36 3 11 3 C10.0268319 5.9195043 9.8070454 8.05444951 9.68359375 11.10546875 C9.64169922 12.08837891 9.59980469 13.07128906 9.55664062 14.08398438 C9.51732422 15.10814453 9.47800781 16.13230469 9.4375 17.1875 C9.39431641 18.22326172 9.35113281 19.25902344 9.30664062 20.32617188 C9.20055634 22.8839819 9.09849854 25.44188845 9 28 C6.625 28.625 6.625 28.625 4 29 C2 27 2 27 1.77294922 24.75341797 C1.78342285 23.84221191 1.79389648 22.93100586 1.8046875 21.9921875 C1.81113281 21.00605469 1.81757812 20.01992187 1.82421875 19.00390625 C1.84097656 17.97136719 1.85773438 16.93882812 1.875 15.875 C1.88402344 14.83472656 1.89304687 13.79445312 1.90234375 12.72265625 C1.92596253 10.14820908 1.95889851 7.57421788 2 5 C1.01 5 0.02 5 -1 5 C-0.67 3.35 -0.34 1.7 0 0 Z " fill="#121212" transform="translate(100,176)"/>
<path d="M0 0 C2.375 0.1875 2.375 0.1875 5 1 C6.6875 3.0625 6.6875 3.0625 8 5 C8.66 5 9.32 5 10 5 C9.835 5.94875 9.67 6.8975 9.5 7.875 C8.59984492 14.2934971 7.85995686 21.11241912 11 27 C10.01 27 9.02 27 8 27 C8.33 30.96 8.66 34.92 9 39 C7.0085944 39.38133299 5.00720923 39.71325582 3 40 C1.04901915 38.04901915 1.74584892 34.35325071 1.68359375 31.68359375 C1.66281265 30.95253922 1.64203156 30.22148468 1.62062073 29.46827698 C1.55504976 27.12478344 1.49620568 24.78117461 1.4375 22.4375 C1.39432192 20.85220145 1.35070787 19.26691471 1.30664062 17.68164062 C1.1993608 13.78787963 1.0981151 9.89400228 1 6 C0.01 5.67 -0.98 5.34 -2 5 C-1.125 1.125 -1.125 1.125 0 0 Z " fill="#090909" transform="translate(125,176)"/>
<path d="M0 0 C0.66 0 1.32 0 2 0 C2.33 1.32 2.66 2.64 3 4 C4.65 4 6.3 4 8 4 C8 4.33 8 4.66 8 5 C6.35 5 4.7 5 3 5 C3.33 7.64 3.66 10.28 4 13 C6.12364481 13.22609337 6.12364481 13.22609337 7.625 11.5 C8.07875 11.005 8.5325 10.51 9 10 C10.83402304 15.96668828 12.53889252 21.93078433 14 28 C11.04335481 29.4783226 8.25770263 29.06032783 5 29 C4.4465236 26.92446352 4 25.15634036 4 23 C2.906875 23.20625 1.81375 23.4125 0.6875 23.625 C-3 24 -3 24 -6 22 C-5.34 20.68 -4.68 19.36 -4 18 C-3.34 18 -2.68 18 -2 18 C-2.33 15.69 -2.66 13.38 -3 11 C-2.34 11 -1.68 11 -1 11 C-0.67 7.37 -0.34 3.74 0 0 Z " fill="#2B2829" transform="translate(54,56)"/>
<path d="M0 0 C4.75 0.75 4.75 0.75 7 3 C9.03718237 8.98095851 8.84995695 15.9105225 6.5 21.6875 C6.005 22.450625 5.51 23.21375 5 24 C2.1875 24.3125 2.1875 24.3125 -1 24 C-4.1116828 20.12493708 -4.432241 16.88035562 -4.4375 12 C-4.45683594 10.80375 -4.47617188 9.6075 -4.49609375 8.375 C-3.92168283 4.46719659 -2.69528727 2.81804292 0 0 Z " fill="#F1F1F1" transform="translate(166,178)"/>
<path d="M0 0 C1.66519519 0.34060811 3.33157466 0.67558396 5 1 C4.80793847 9.17134516 4.80793847 9.17134516 1.5625 12.5 C-2.30690323 14.76501652 -4.45653808 15.37089485 -9 15 C-10.875 13.9375 -10.875 13.9375 -12 12 C-12.5 8.625 -12.5 8.625 -12 5 C-8.3656313 0.48159567 -5.6863298 -1.67244994 0 0 Z " fill="#181818" transform="translate(82,190)"/>
<path d="M0 0 C2.5625 0.1875 2.5625 0.1875 4.5625 2.1875 C4.86328125 5.26953125 4.86328125 5.26953125 4.875 9 C4.89175781 10.22332031 4.90851563 11.44664062 4.92578125 12.70703125 C4.54009325 16.40217114 3.87688685 18.30533133 1.5625 21.1875 C-1.5 21.6875 -1.5 21.6875 -4.4375 21.1875 C-7.28034726 16.92322911 -6.95256328 13.19421803 -6.4375 8.1875 C-4.12013388 0.31693338 -4.12013388 0.31693338 0 0 Z " fill="#F3F3F3" transform="translate(139.4375,179.8125)"/>
<path d="M0 0 C3.57849992 0.29820833 4.76226484 0.74245358 7.25 3.4375 C10.68184089 8.46269559 10.75835873 13.00731745 10 19 C8.40753746 22.41666404 6.45748396 25.27125802 3 27 C0.3276379 27.13415472 -2.32250488 27.04318541 -5 27 C-4.401875 26.79375 -3.80375 26.5875 -3.1875 26.375 C0.04472526 24.34331555 0.73259475 22.61210496 2 19 C2.56366103 13.08589508 2.29221439 8.48852927 0 3 C0 2.01 0 1.02 0 0 Z " fill="#0D0D0D" transform="translate(171,177)"/>
<path d="M0 0 C2.1286566 0.95422537 3.75616916 1.73833002 5.3581543 3.45751953 C7.29477124 5.27693156 8.96815254 5.95409563 11.45703125 6.8671875 C12.32263672 7.19589844 13.18824219 7.52460937 14.08007812 7.86328125 C15.8888455 8.53300355 17.69873046 9.19971587 19.50976562 9.86328125 C24.94461704 11.93408453 28.69590156 14.10520661 33 18 C35.18434921 19.29410961 35.18434921 19.29410961 37.25 20.1875 C39.72905545 21.31652719 41.03706234 22.03706234 43 24 C43.44921875 27.1875 43.44921875 27.1875 43.6875 31 C43.77386719 32.258125 43.86023438 33.51625 43.94921875 34.8125 C44 38 44 38 43 40 C43.66 40 44.32 40 45 40 C45.495 42.475 45.495 42.475 46 45 C45.01 44.34 44.02 43.68 43 43 C40.84725052 43.30840599 40.84725052 43.30840599 39 44 C38.28966569 38.47032059 37.69732824 33.50016964 39 28 C39.66 28 40.32 28 41 28 C40.07501714 24.90983379 39.51865519 23.34699409 36.79296875 21.5234375 C35.50326172 20.95496094 35.50326172 20.95496094 34.1875 20.375 C31.58519194 19.20179606 29.12029446 18.07536274 26.69921875 16.55859375 C23.8263711 14.8997425 20.95756304 13.74021074 17.86889648 12.55151367 C10.98660804 9.90148442 5.05526972 7.57375892 0 2 C0 1.34 0 0.68 0 0 Z " fill="#2C292A" transform="translate(159,44)"/>
<path d="M0 0 C4.52212179 0.4173099 8.71022413 1.5204588 12.953125 3.15234375 C11.963125 3.81234375 10.973125 4.47234375 9.953125 5.15234375 C8.27423479 4.51708799 6.60895725 3.84548283 4.953125 3.15234375 C1.91058992 2.56888899 1.91058992 2.56888899 -1.046875 3.15234375 C-4.67213778 6.57044866 -6.15037364 10.61723181 -8.046875 15.15234375 C-8.8203125 16.17328125 -8.8203125 16.17328125 -9.609375 17.21484375 C-11.46519041 19.71616017 -12.0948116 22.18414608 -13.046875 25.15234375 C-15.97246114 33.61513682 -15.97246114 33.61513682 -20.171875 35.71484375 C-23.046875 36.15234375 -23.046875 36.15234375 -25.046875 36.15234375 C-25.046875 37.14234375 -25.046875 38.13234375 -25.046875 39.15234375 C-30.57396111 40.09454501 -35.88445852 40.27350524 -41.484375 40.21484375 C-42.31130859 40.21033203 -43.13824219 40.20582031 -43.99023438 40.20117188 C-46.00914646 40.18950186 -48.02802074 40.17157093 -50.046875 40.15234375 C-49.716875 42.46234375 -49.386875 44.77234375 -49.046875 47.15234375 C-51.1988187 43.9244282 -51.24773943 42.86833566 -51.046875 39.15234375 C-47.85663769 38.34659593 -44.81659242 38.06474771 -41.54296875 37.9765625 C-40.71990234 37.95271484 -39.89683594 37.92886719 -39.04882812 37.90429688 C-37.33554257 37.86123638 -35.62191891 37.83003568 -33.90820312 37.81054688 C-28.83892943 37.71988226 -28.83892943 37.71988226 -24.62890625 35.125 C-24.10683594 34.47402344 -23.58476563 33.82304688 -23.046875 33.15234375 C-20.296875 32.90234375 -20.296875 32.90234375 -18.046875 33.15234375 C-17.964375 32.34796875 -17.881875 31.54359375 -17.796875 30.71484375 C-16.3174831 23.68773224 -13.02985293 18.06256906 -9.046875 12.15234375 C-8.551875 10.97671875 -8.056875 9.80109375 -7.546875 8.58984375 C-3.92608889 0.29220891 -3.92608889 0.29220891 0 0 Z " fill="#575556" transform="translate(108.046875,21.84765625)"/>
<path d="M0 0 C3.50822316 2.33881544 3.80023066 3.48414203 5.125 7.375 C5.45757812 8.33148438 5.79015625 9.28796875 6.1328125 10.2734375 C6.84313415 12.50679116 7.47016894 14.71848257 8 17 C2.97464928 19.84769874 -1.49523308 18.73396892 -7 18 C-6.01 14.7 -5.02 11.4 -4 8 C-3.34 8 -2.68 8 -2 8 C-1.855625 6.865625 -1.71125 5.73125 -1.5625 4.5625 C-1 1 -1 1 0 0 Z " fill="#413E3F" transform="translate(84,89)"/>
<path d="M0 0 C0 3.42247069 -0.24977832 3.74849037 -2.5 6.125 C-8.36313841 11.76079223 -15.84415459 15.28142659 -23 19 C-23.81726563 19.43570313 -24.63453125 19.87140625 -25.4765625 20.3203125 C-32.53032172 23.77910563 -40.38671333 25.24380627 -48 27 C-48 26.01 -48 25.02 -48 24 C-47.16597656 23.82984375 -46.33195312 23.6596875 -45.47265625 23.484375 C-38.53717555 21.9908236 -32.30286629 20.25629695 -26 17 C-24.72576172 16.35224609 -24.72576172 16.35224609 -23.42578125 15.69140625 C-10.78728899 9.11857753 -10.78728899 9.11857753 0 0 Z " fill="#4C4A4B" transform="translate(141,72)"/>
<path d="M0 0 C1.98 0 3.96 0 6 0 C6 1.32 6 2.64 6 4 C6.99 2.68 7.98 1.36 9 0 C10.32 0.33 11.64 0.66 13 1 C11.68 2.32 10.36 3.64 9 5 C10.2491742 8.45925163 11.67527795 11.14693203 14 14 C12.02 14 10.04 14 8 14 C7.34 12.35 6.68 10.7 6 9 C6 10.65 6 12.3 6 14 C4.02 14 2.04 14 0 14 C0 9.38 0 4.76 0 0 Z " fill="#4F4D4D" transform="translate(147,221)"/>
<path d="M0 0 C2.70927468 2.38351019 4.97393451 5.01485026 7 8 C7 8.66 7 9.32 7 10 C10.3 10.33 13.6 10.66 17 11 C17.4125 10.195625 17.825 9.39125 18.25 8.5625 C20 6 20 6 22.1875 5.1875 C22.785625 5.125625 23.38375 5.06375 24 5 C24.495 6.98 24.495 6.98 25 9 C26.32 9.33 27.64 9.66 29 10 C29 10.66 29 11.32 29 12 C29.66 12 30.32 12 31 12 C31 12.66 31 13.32 31 14 C31.66 14.33 32.32 14.66 33 15 C28.60249328 14.49259538 26.13051078 11.91706686 23 9 C23 8.34 23 7.68 23 7 C22.34 7 21.68 7 21 7 C20.7525 7.78375 20.505 8.5675 20.25 9.375 C18.8175952 12.38305008 17.9690761 12.75490357 15 14 C14.67 14.66 14.34 15.32 14 16 C13.34 16 12.68 16 12 16 C12 15.01 12 14.02 12 13 C11.401875 12.855625 10.80375 12.71125 10.1875 12.5625 C5.19880034 11.27969152 5.19880034 11.27969152 3.8671875 9.40625 C3.53976563 8.7771875 3.21234375 8.148125 2.875 7.5 C1.35663546 4.26017229 1.35663546 4.26017229 0 3 C-1.85287502 2.92773498 -3.70833878 2.9161878 -5.5625 2.9375 C-6.57441406 2.94652344 -7.58632812 2.95554687 -8.62890625 2.96484375 C-9.41136719 2.97644531 -10.19382812 2.98804688 -11 3 C-6.97183524 0.31455683 -4.8878773 -0.8300169 0 0 Z " fill="#474546" transform="translate(129,24)"/>
<path d="M0 0 C6.875 1.875 6.875 1.875 8 3 C10.02825491 3.19316713 12.05723921 3.38325788 14.08984375 3.5234375 C16 4 16 4 18 7 C20.50183091 7.25093863 20.50183091 7.25093863 23.3125 7 C27.77041779 6.85959314 30.43347071 7.04838955 34 10 C33.67 12.97 33.34 15.94 33 19 C32.34 19 31.68 19 31 19 C31.33 16.36 31.66 13.72 32 11 C28.68929162 9.99890485 25.69915231 9.89643866 22.25 9.9375 C21.26515625 9.94652344 20.2803125 9.95554687 19.265625 9.96484375 C18.14414063 9.98224609 18.14414063 9.98224609 17 10 C16.67 9.01 16.34 8.02 16 7 C14.989375 7.0825 13.97875 7.165 12.9375 7.25 C8.06444208 6.9405995 6.0520549 5.62191787 2 3 C1.34 2.67 0.68 2.34 0 2 C0 1.34 0 0.68 0 0 Z " fill="#5E5C5D" transform="translate(73,72)"/>
<path d="M0 0 C2.625 0.3125 2.625 0.3125 4.4375 1.875 C6.01683172 5.11678616 5.83021796 7.75538878 5.625 11.3125 C1.10882401 11.38904536 -2.96585217 11.41478696 -7.375 10.3125 C-7.375 9.9825 -7.375 9.6525 -7.375 9.3125 C-5.725 9.3125 -4.075 9.3125 -2.375 9.3125 C-2.705 8.6525 -3.035 7.9925 -3.375 7.3125 C-3.5 4.25 -3.5 4.25 -3.375 1.3125 C-2.375 0.3125 -2.375 0.3125 0 0 Z " fill="#DDDDDD" transform="translate(81.375,177.6875)"/>
<path d="M0 0 C1.670625 0.061875 1.670625 0.061875 3.375 0.125 C3.375 1.775 3.375 3.425 3.375 5.125 C2.715 4.465 2.055 3.805 1.375 3.125 C0.055 3.125 -1.265 3.125 -2.625 3.125 C-2.625 3.785 -2.625 4.445 -2.625 5.125 C-1.655625 5.516875 -0.68625 5.90875 0.3125 6.3125 C3.375 8.125 3.375 8.125 4.375 10.6875 C4.375 11.491875 4.375 12.29625 4.375 13.125 C2.375 15.125 2.375 15.125 0.2109375 15.3203125 C-1.00722656 15.28550781 -1.00722656 15.28550781 -2.25 15.25 C-3.06726563 15.23195312 -3.88453125 15.21390625 -4.7265625 15.1953125 C-5.35304687 15.17210937 -5.97953125 15.14890625 -6.625 15.125 C-6.295 13.805 -5.965 12.485 -5.625 11.125 C-4.965 11.785 -4.305 12.445 -3.625 13.125 C-2.305 13.125 -0.985 13.125 0.375 13.125 C0.705 12.135 1.035 11.145 1.375 10.125 C0.611875 10.00125 -0.15125 9.8775 -0.9375 9.75 C-3.625 9.125 -3.625 9.125 -6.625 7.125 C-5.84042384 2.15601765 -5.49387562 0.18944399 0 0 Z " fill="#4A4748" transform="translate(174.625,219.875)"/>
<path d="M0 0 C-0.99 0.33 -1.98 0.66 -3 1 C-3.33 1.66 -3.66 2.32 -4 3 C-5.65 3 -7.3 3 -9 3 C-9 5.64 -9 8.28 -9 11 C-11.875 11.125 -11.875 11.125 -15 11 C-17 9 -17 9 -17.4375 6.625 C-17 4 -17 4 -15.25 1.6875 C-10.30364968 -0.88079728 -5.4672341 -0.31390818 0 0 Z " fill="#151515" transform="translate(88,176)"/>
<path d="M0 0 C0.33 1.65 0.66 3.3 1 5 C0.34 5 -0.32 5 -1 5 C-1.33 4.34 -1.66 3.68 -2 3 C-3.32 3 -4.64 3 -6 3 C-6 5.97 -6 8.94 -6 12 C-3.69 12 -1.38 12 1 12 C1 12.66 1 13.32 1 14 C-2.0832635 15.54163175 -4.60878099 15.29747535 -8 15 C-10.85576764 12.69696158 -10.98181881 11.14544949 -11.4375 7.5 C-11 4 -11 4 -9.4375 1.5625 C-6.18129203 -0.5248128 -3.79004984 -0.2915423 0 0 Z " fill="#434041" transform="translate(87,220)"/>
<path d="M0 0 C3.85233114 1.46009124 5.03643054 3.28341148 6.8125 6.9375 C7.25207031 7.81277344 7.69164062 8.68804687 8.14453125 9.58984375 C9 12 9 12 8 15 C7.66226563 14.36191406 7.32453125 13.72382812 6.9765625 13.06640625 C6.53054687 12.24011719 6.08453125 11.41382813 5.625 10.5625 C5.18414062 9.73878906 4.74328125 8.91507813 4.2890625 8.06640625 C3.16581441 5.86533422 3.16581441 5.86533422 1 5 C0.773125 5.556875 0.54625 6.11375 0.3125 6.6875 C-1.70153622 10.23604002 -4.65529413 12.74903565 -7.625 15.51171875 C-8.16125 16.02347656 -8.6975 16.53523438 -9.25 17.0625 C-9.75015625 17.52785156 -10.2503125 17.99320313 -10.765625 18.47265625 C-12.21793917 20.26966523 -12.59304148 21.74719391 -13 24 C-13.66 24 -14.32 24 -15 24 C-14.57731619 19.0686889 -12.53931344 17.30848865 -9 14 C-4.81172538 9.65860566 -1.3621946 6.05419822 0 0 Z " fill="#565354" transform="translate(128,49)"/>
<path d="M0 0 C2.1286566 0.95422537 3.75616916 1.73833002 5.3581543 3.45751953 C7.29477124 5.27693156 8.96815254 5.95409563 11.45703125 6.8671875 C12.32263672 7.19589844 13.18824219 7.52460937 14.08007812 7.86328125 C15.8888455 8.53300355 17.69873046 9.19971587 19.50976562 9.86328125 C24.93015457 11.928574 28.72246329 14.09042344 33 18 C35.7124618 19.3049484 35.7124618 19.3049484 38 20 C38 20.66 38 21.32 38 22 C34.7054574 21.08059276 32.31830959 20.26057957 29.65234375 18.078125 C26.90831541 15.92816465 24.48475065 14.76651613 21.25 13.5 C20.20070312 13.0771875 19.15140625 12.654375 18.0703125 12.21875 C17.05710938 11.8165625 16.04390625 11.414375 15 11 C9.19503927 8.67095801 4.5165537 6.40074464 0 2 C0 1.34 0 0.68 0 0 Z " fill="#504D4E" transform="translate(159,44)"/>
<path d="M0 0 C0.33 1.65 0.66 3.3 1 5 C0.34 4.34 -0.32 3.68 -1 3 C-3.60280568 3.32041397 -3.60280568 3.32041397 -6 4 C-6.04241723 6.33294775 -6.04092937 8.66702567 -6 11 C-4.81575674 12.41577477 -4.81575674 12.41577477 -1.4375 12.0625 C0.2640625 12.0315625 0.2640625 12.0315625 2 12 C2 12.66 2 13.32 2 14 C-0.21295616 15.10647808 -1.54672699 15.19588368 -4 15.25 C-5.051875 15.28867188 -5.051875 15.28867188 -6.125 15.328125 C-6.74375 15.21984375 -7.3625 15.1115625 -8 15 C-10.4567061 11.31494085 -10.68887481 8.27963474 -10 4 C-7.25492723 -0.22318887 -4.85423095 -0.44129372 0 0 Z " fill="#2B292A" transform="translate(138,220)"/>
<path d="M0 0 C2 1 2 1 3 3 C3.99 2.67 4.98 2.34 6 2 C6.48695652 9.42608696 6.48695652 9.42608696 4.25 12.0625 C1.6468225 13.14715729 0.58518155 13.01560704 -2 12 C-2.625 10.125 -2.625 10.125 -3 8 C-2.34 7.34 -1.68 6.68 -1 6 C-1.33 5.34 -1.66 4.68 -2 4 C-1.0625 1.875 -1.0625 1.875 0 0 Z " fill="#DBDADB" transform="translate(197,84)"/>
<path d="M0 0 C1.65 0.33 3.3 0.66 5 1 C5.33 2.65 5.66 4.3 6 6 C0.02597761 10.67241975 -4.48172337 11.69328371 -12 11 C-12 10.67 -12 10.34 -12 10 C-10.72125 9.9175 -9.4425 9.835 -8.125 9.75 C-4.86759098 9.44924711 -4.86759098 9.44924711 -2.625 7.25 C-2.41875 6.5075 -2.2125 5.765 -2 5 C-1.62875 4.0925 -1.2575 3.185 -0.875 2.25 C-0.441875 1.13625 -0.441875 1.13625 0 0 Z " fill="#202020" transform="translate(60,194)"/>
<path d="M0 0 C0.66 0 1.32 0 2 0 C2.103125 0.61875 2.20625 1.2375 2.3125 1.875 C2.87525373 4.36526484 2.87525373 4.36526484 6 6 C6.43237305 8.33837891 6.43237305 8.33837891 6.51171875 11.2265625 C6.54716797 12.2578125 6.58261719 13.2890625 6.61914062 14.3515625 C6.64169922 15.43179688 6.66425781 16.51203125 6.6875 17.625 C6.72166016 18.71296875 6.75582031 19.8009375 6.79101562 20.921875 C6.87368334 23.61448063 6.94277087 26.30675291 7 29 C5.14589936 27.42114409 4.11342976 26.44809536 3.50756836 24.0546875 C3.42454468 22.97574219 3.42454468 22.97574219 3.33984375 21.875 C3.26830078 21.08609375 3.19675781 20.2971875 3.12304688 19.484375 C3.06181641 18.66453125 3.00058594 17.8446875 2.9375 17 C2.80842131 15.37437529 2.67199257 13.74931331 2.52734375 12.125 C2.47312256 11.40570313 2.41890137 10.68640625 2.36303711 9.9453125 C2.07270692 7.68369729 2.07270692 7.68369729 0 5 C-0.125 2.3125 -0.125 2.3125 0 0 Z " fill="#605E5F" transform="translate(142,42)"/>
<path d="M0 0 C5.09636993 -0.36258758 8.90042893 -0.54014017 13.5625 1.75 C16 4 16 4 17 6.125 C17 6.74375 17 7.3625 17 8 C16.34 8.66 15.68 9.32 15 10 C13.68 10 12.36 10 11 10 C10.79375 9.21625 10.5875 8.4325 10.375 7.625 C9.21795889 4.71223141 9.21795889 4.71223141 6.0625 3.875 C5.051875 3.58625 4.04125 3.2975 3 3 C1.30859375 1.4453125 1.30859375 1.4453125 0 0 Z " fill="#252525" transform="translate(48,166)"/>
<path d="M0 0 C0 0.66 0 1.32 0 2 C-1.64908692 3.32830563 -3.40097009 4.43249628 -5.17578125 5.5859375 C-8.91274205 8.48268227 -10.3734802 11.55781356 -11.5625 16.0625 C-12.42267206 19.29421988 -13.10922736 21.16384104 -15 24 C-18.125 24.6875 -18.125 24.6875 -21 25 C-21 24.34 -21 23.68 -21 23 C-19.35 22.67 -17.7 22.34 -16 22 C-15.9175 21.360625 -15.835 20.72125 -15.75 20.0625 C-14.00505944 12.93732604 -8.86744166 0 0 0 Z " fill="#605E5F" transform="translate(128,39)"/>
<path d="M0 0 C-0.345844 3.11259604 -0.87379967 4.82872813 -2.75 7.375 C-5 9 -5 9 -7.75 8.75 C-8.4925 8.5025 -9.235 8.255 -10 8 C-10.25 5.6875 -10.25 5.6875 -10 3 C-7.00198322 -0.3439418 -4.3216814 -0.2946601 0 0 Z " fill="#EFEFEF" transform="translate(87,191)"/>
<path d="M0 0 C1.32 0 2.64 0 4 0 C4.66 1.98 5.32 3.96 6 6 C8.97 6.495 8.97 6.495 12 7 C12.33 7.99 12.66 8.98 13 10 C3.96551724 10.62068966 3.96551724 10.62068966 0.375 8.3125 C-1.2322331 5.60942614 -1.41808531 4.09383129 -1 1 C-0.67 0.67 -0.34 0.34 0 0 Z " fill="#1F1F1F" transform="translate(196,195)"/>
<path d="M0 0 C4.48159699 0.19101889 8.51476857 1.12475086 12.8125 2.375 C12.8125 2.705 12.8125 3.035 12.8125 3.375 C7.5325 3.045 2.2525 2.715 -3.1875 2.375 C-3.8475 4.025 -4.5075 5.675 -5.1875 7.375 C-6.84375 8.95703125 -6.84375 8.95703125 -8.6875 10.1875 C-9.60015625 10.81591797 -9.60015625 10.81591797 -10.53125 11.45703125 C-12.1875 12.375 -12.1875 12.375 -14.1875 12.375 C-14.1875 11.715 -14.1875 11.055 -14.1875 10.375 C-12.76171875 9.0078125 -12.76171875 9.0078125 -10.875 7.5 C-8.64045967 5.68749015 -7.26626586 4.51105012 -5.8125 2 C-3.7504461 -0.0620539 -2.86677531 0.07814038 0 0 Z " fill="#484647" transform="translate(148.1875,72.625)"/>
<path d="M0 0 C2.375 -0.125 2.375 -0.125 5 0 C5.66 0.66 6.32 1.32 7 2 C6.66723549 8.10068259 6.66723549 8.10068259 4.5625 10.9375 C3 12 3 12 1 12 C1 9.69 1 7.38 1 5 C0.34 4.67 -0.32 4.34 -1 4 C-0.67 2.68 -0.34 1.36 0 0 Z " fill="#1B1B1B" transform="translate(185,164)"/>
<path d="M0 0 C0.33 0 0.66 0 1 0 C0.93912884 1.39699314 0.85011115 2.7927696 0.75 4.1875 C0.68039063 5.35345703 0.68039063 5.35345703 0.609375 6.54296875 C0 9 0 9 -1.9765625 11.37890625 C-4.44486845 14.57626782 -4.7015619 16.76788002 -5.125 20.75 C-5.35473625 22.84106874 -5.63141288 24.92889142 -6 27 C-6.66 27.33 -7.32 27.66 -8 28 C-7.96675108 25.45494659 -7.89935637 22.91833268 -7.8125 20.375 C-7.80669922 19.66214844 -7.80089844 18.94929688 -7.79492188 18.21484375 C-7.5578131 12.47154236 -5.91305724 10.15460398 -2 6 C-0.67649342 2.78734084 -0.67649342 2.78734084 0 0 Z " fill="#4B4949" transform="translate(109,28)"/>
<path d="M0 0 C1.65 0 3.3 0 5 0 C4.67 4.29 4.34 8.58 4 13 C5.65 13 7.3 13 9 13 C9.33 11.68 9.66 10.36 10 9 C10.33 9 10.66 9 11 9 C11 10.65 11 12.3 11 14 C7.04 14 3.08 14 -1 14 C-0.34 13.67 0.32 13.34 1 13 C0.67 8.71 0.34 4.42 0 0 Z " fill="#333031" transform="translate(96,221)"/>
<path d="M0 0 C1.98 0 3.96 0 6 0 C6 4.62 6 9.24 6 14 C4.02 14 2.04 14 0 14 C0 9.38 0 4.76 0 0 Z " fill="#444243" transform="translate(114,221)"/>
<path d="M0 0 C1.32 0.66 2.64 1.32 4 2 C1.36 4.64 -1.28 7.28 -4 10 C-5.32 9.34 -6.64 8.68 -8 8 C-7.34 7.01 -6.68 6.02 -6 5 C-6.99 4.67 -7.98 4.34 -9 4 C-8.67 3.34 -8.34 2.68 -8 2 C-6.8553125 2.061875 -6.8553125 2.061875 -5.6875 2.125 C-2.77281584 2.22080824 -2.77281584 2.22080824 0 0 Z " fill="#646262" transform="translate(154,127)"/>
<path d="M0 0 C3.5625 0.1875 3.5625 0.1875 5.5625 2.1875 C5.75 5.25 5.75 5.25 5.5625 8.1875 C4.5625 9.1875 4.5625 9.1875 2 9.25 C1.195625 9.229375 0.39125 9.20875 -0.4375 9.1875 C-0.4375 6.8775 -0.4375 4.5675 -0.4375 2.1875 C-1.7575 1.8575 -3.0775 1.5275 -4.4375 1.1875 C-3.4375 0.1875 -3.4375 0.1875 0 0 Z " fill="#080808" transform="translate(115.4375,176.8125)"/>
<path d="M0 0 C0.66 0.66 1.32 1.32 2 2 C0.94941406 2.60585937 -0.10117188 3.21171875 -1.18359375 3.8359375 C-9.11929459 8.53290465 -15.56430183 12.83849939 -21.30078125 20.1640625 C-21.86152344 20.76992187 -22.42226562 21.37578125 -23 22 C-23.99 22 -24.98 22 -26 22 C-18.23041848 12.7931882 -10.4637474 5.9903406 0 0 Z " fill="#494747" transform="translate(182,105)"/>
<path d="M0 0 C1.91595968 -0.08133791 3.83291932 -0.13934367 5.75 -0.1875 C7.35101563 -0.23970703 7.35101563 -0.23970703 8.984375 -0.29296875 C12.30027855 0.02917214 13.59016673 0.77148914 16 3 C15.67 4.65 15.34 6.3 15 8 C13.68 8 12.36 8 11 8 C10.79375 7.360625 10.5875 6.72125 10.375 6.0625 C9.92125 5.381875 9.4675 4.70125 9 4 C7.0085944 3.61866701 5.00720923 3.28674418 3 3 C1.30859375 1.47265625 1.30859375 1.47265625 0 0 Z " fill="#292929" transform="translate(200,176)"/>
<path d="M0 0 C-1.36591169 3.54243452 -2.90931484 6.92627929 -4.625 10.3125 C-5.07101563 11.19550781 -5.51703125 12.07851562 -5.9765625 12.98828125 C-6.31429687 13.65214844 -6.65203125 14.31601563 -7 15 C-8.53271273 10.41201223 -7.02911182 8.22055258 -5 4 C-9.455 6.97 -9.455 6.97 -14 10 C-14.66 9.67 -15.32 9.34 -16 9 C-5.75 0 -5.75 0 0 0 Z " fill="#504D4E" transform="translate(94,60)"/>
<path d="M0 0 C1.98 0 3.96 0 6 0 C5.01 0.495 5.01 0.495 4 1 C4.66 5.29 5.32 9.58 6 14 C4.02 14 2.04 14 0 14 C0 9.38 0 4.76 0 0 Z " fill="#403D3E" transform="translate(147,221)"/>
<path d="M0 0 C2.375 1.25 2.375 1.25 3.375 4.25 C2.055 5.57 0.735 6.89 -0.625 8.25 C-3.625 7.25 -3.625 7.25 -5.625 4.25 C-5.625 2.93 -5.625 1.61 -5.625 0.25 C-2.625 -0.75 -2.625 -0.75 0 0 Z " fill="#615F5F" transform="translate(217.625,67.75)"/>
<path d="M0 0 C0.66 0 1.32 0 2 0 C2.33 1.98 2.66 3.96 3 6 C2.01 6.33 1.02 6.66 0 7 C-0.80563638 9.10584438 -0.80563638 9.10584438 -1.1875 11.5625 C-1.34605469 12.38878906 -1.50460938 13.21507813 -1.66796875 14.06640625 C-1.77753906 14.70449219 -1.88710937 15.34257813 -2 16 C-2.99 16 -3.98 16 -5 16 C-4.67 14.68 -4.34 13.36 -4 12 C-4.66 12 -5.32 12 -6 12 C-5.67 10.68 -5.34 9.36 -5 8 C-5 8.66 -5 9.32 -5 10 C-4.01 10 -3.02 10 -2 10 C-1.93941406 9.36191406 -1.87882812 8.72382812 -1.81640625 8.06640625 C-1.73261719 7.24011719 -1.64882812 6.41382812 -1.5625 5.5625 C-1.48128906 4.73878906 -1.40007812 3.91507812 -1.31640625 3.06640625 C-1 1 -1 1 0 0 Z " fill="#5D5B5C" transform="translate(109,104)"/>
<path d="M0 0 C2.26568725 2.26568725 2.55280451 3.43233985 3.25 6.5 C3.44078125 7.2940625 3.6315625 8.088125 3.828125 8.90625 C3.91320312 9.94265625 3.91320312 9.94265625 4 11 C1.64046906 13.35953094 0.22104383 13.49141413 -3 14 C-3 12.35 -3 10.7 -3 9 C-2.34 9 -1.68 9 -1 9 C-0.67 6.03 -0.34 3.06 0 0 Z " fill="#2F2D2E" transform="translate(119,101)"/>
<path d="M0 0 C1.875 0.25 1.875 0.25 4 1 C5.25 3.0625 5.25 3.0625 6 5 C6.886875 4.896875 7.77375 4.79375 8.6875 4.6875 C13.02352461 5.09655893 14.11663528 6.88284896 17 10 C17.99 10 18.98 10 20 10 C20 10.99 20 11.98 20 13 C19.01 13.33 18.02 13.66 17 14 C16.56429687 13.51789063 16.12859375 13.03578125 15.6796875 12.5390625 C11.90260129 8.53306197 9.31213046 6.65266281 4 5 C1.625 2.375 1.625 2.375 0 0 Z " fill="#514F50" transform="translate(192,54)"/>
<path d="M0 0 C-2.83430453 3.2542015 -4.68607774 4.5206753 -9 5 C-8.896875 5.886875 -8.79375 6.77375 -8.6875 7.6875 C-9.09498572 12.00684858 -10.7722703 13.25642975 -14 16 C-14.66 15.67 -15.32 15.34 -16 15 C-15.38125 14.484375 -14.7625 13.96875 -14.125 13.4375 C-11.73711606 11.08075501 -11.73711606 11.08075501 -11.1875 7.5625 C-9.78320854 3.34962562 -8.28723266 2.19203985 -4.75390625 -0.25 C-3 -1 -3 -1 0 0 Z " fill="#4C494A" transform="translate(167,55)"/>
<path d="M0 0 C1.65 0.33 3.3 0.66 5 1 C5.625 3.375 5.625 3.375 6 6 C4 8 4 8 1.8359375 8.1953125 C0.61777344 8.16050781 0.61777344 8.16050781 -0.625 8.125 C-1.44226563 8.10695312 -2.25953125 8.08890625 -3.1015625 8.0703125 C-3.72804687 8.04710937 -4.35453125 8.02390625 -5 8 C-4.67 6.68 -4.34 5.36 -4 4 C-3.34 4.66 -2.68 5.32 -2 6 C-0.68 6 0.64 6 2 6 C2.33 5.01 2.66 4.02 3 3 C2.01 3 1.02 3 0 3 C0 2.01 0 1.02 0 0 Z " fill="#3A3839" transform="translate(173,227)"/>
<path d="M0 0 C0.33 0.99 0.66 1.98 1 3 C3.50447516 4.21869929 3.50447516 4.21869929 6 5 C5.46375 5.2475 4.9275 5.495 4.375 5.75 C-1.62125906 8.67130596 -1.62125906 8.67130596 -5 14 C-5.66 14 -6.32 14 -7 14 C-7.33 12.02 -7.66 10.04 -8 8 C-7.21625 7.855625 -6.4325 7.71125 -5.625 7.5625 C-3.03578982 7.12201075 -3.03578982 7.12201075 -1 6 C-1.020625 5.195625 -1.04125 4.39125 -1.0625 3.5625 C-1 1 -1 1 0 0 Z " fill="#5B5959" transform="translate(203,88)"/>
<path d="M0 0 C0.33 0 0.66 0 1 0 C1.36504603 1.58086048 1.71660506 3.16483907 2.0625 4.75 C2.25972656 5.63171875 2.45695313 6.5134375 2.66015625 7.421875 C2.99825872 9.98679028 2.81158635 11.57091639 2 14 C0.35 13.01 -1.3 12.02 -3 11 C-2.34 10.67 -1.68 10.34 -1 10 C-0.53248212 7.64400765 -0.53248212 7.64400765 -0.375 4.9375 C-0.30023438 4.01839844 -0.22546875 3.09929687 -0.1484375 2.15234375 C-0.09945312 1.44207031 -0.05046875 0.73179688 0 0 Z " fill="#3E3B3C" transform="translate(186,69)"/>
<path d="M0 0 C2.125 0.375 2.125 0.375 4 1 C4 1.99 4 2.98 4 4 C5.32 4.33 6.64 4.66 8 5 C8 5.66 8 6.32 8 7 C8.66 7 9.32 7 10 7 C10 7.66 10 8.32 10 9 C10.66 9.33 11.32 9.66 12 10 C7.60249328 9.49259538 5.13051078 6.91706686 2 4 C2 3.34 2 2.68 2 2 C1.34 2 0.68 2 0 2 C-0.66 3.32 -1.32 4.64 -2 6 C-2 2 -2 2 0 0 Z " fill="#504D4E" transform="translate(150,29)"/>
<path d="M0 0 C0.66 0 1.32 0 2 0 C3.35439668 2.70879335 3.06501451 5.00933268 3 8 C2.67 7.34 2.34 6.68 2 6 C1.34 6 0.68 6 0 6 C-0.33 8.97 -0.66 11.94 -1 15 C-1.66 15 -2.32 15 -3 15 C-3.33 15.66 -3.66 16.32 -4 17 C-4 16.01 -4 15.02 -4 14 C-3.34 14 -2.68 14 -2 14 C-2.20625 13.484375 -2.4125 12.96875 -2.625 12.4375 C-3.29579099 8.07735855 -1.36795706 4.10387119 0 0 Z " fill="#4E4C4D" transform="translate(172,72)"/>
<path d="M0 0 C3.85233114 1.46009124 5.03643054 3.28341148 6.8125 6.9375 C7.25207031 7.81277344 7.69164062 8.68804687 8.14453125 9.58984375 C9 12 9 12 8 15 C7.67386719 14.36191406 7.34773437 13.72382812 7.01171875 13.06640625 C6.57472656 12.24011719 6.13773438 11.41382813 5.6875 10.5625 C5.25824219 9.73878906 4.82898438 8.91507813 4.38671875 8.06640625 C3.09979113 5.69352356 3.09979113 5.69352356 0 5 C0 3.35 0 1.7 0 0 Z " fill="#413F40" transform="translate(128,49)"/>
<path d="M0 0 C0.33 0.66 0.66 1.32 1 2 C1.66 2 2.32 2 3 2 C3.33 6.95 3.66 11.9 4 17 C0.31470362 13.31470362 0.54538689 11.88943413 0.3125 6.8125 C0.24675781 5.54019531 0.18101562 4.26789062 0.11328125 2.95703125 C0.07589844 1.98121094 0.03851563 1.00539062 0 0 Z " fill="#555354" transform="translate(145,54)"/>
<path d="M0 0 C1.35432675 1.31200404 2.68733482 2.64631404 4 4 C4 4.33 4 4.66 4 5 C5.98 5 7.96 5 10 5 C10 5.66 10 6.32 10 7 C4.72 7 -0.56 7 -6 7 C-5.67 6.34 -5.34 5.68 -5 5 C-3.35 5 -1.7 5 0 5 C0 3.35 0 1.7 0 0 Z " fill="#DDDDDD" transform="translate(152,229)"/>
<path d="M0 0 C5.27315333 0.4452885 10.01770224 1.08373163 15 3 C14.01 3.66 13.02 4.32 12 5 C10.32110979 4.36474424 8.65583225 3.69313908 7 3 C3.91652174 2.83318891 3.91652174 2.83318891 1 3 C0.01 3 -0.98 3 -2 3 C-1.34 2.01 -0.68 1.02 0 0 Z " fill="#5D5B5B" transform="translate(106,22)"/>
<path d="M0 0 C-0.33 1.32 -0.66 2.64 -1 4 C-3.76276177 3.47731534 -6.3260876 2.89130413 -9 2 C-9 1.34 -9 0.68 -9 0 C-5.52176885 -1.15941038 -3.54104422 -0.70820884 0 0 Z " fill="#DEDDDD" transform="translate(176,230)"/>
<path d="M0 0 C2.5654594 2.5654594 2.54046087 4.47686668 3 8 C1.35 8.33 -0.3 8.66 -2 9 C-2.6875 6.1875 -2.6875 6.1875 -3 3 C-1.5625 1.125 -1.5625 1.125 0 0 Z " fill="#575455" transform="translate(62,66)"/>
<path d="M0 0 C3.875 1.875 3.875 1.875 5 3 C5.23192865 4.51469448 5.41215238 6.03754562 5.5625 7.5625 C5.64628906 8.38878906 5.73007813 9.21507813 5.81640625 10.06640625 C5.87699219 10.70449219 5.93757812 11.34257813 6 12 C3.525 11.01 3.525 11.01 1 10 C1 9.01 1 8.02 1 7 C1.66 7 2.32 7 3 7 C1.60240095 3.45481116 1.60240095 3.45481116 0 0 Z " fill="#363434" transform="translate(197,65)"/>
<path d="M0 0 C2.64 0 5.28 0 8 0 C6.02 2.31 4.04 4.62 2 7 C1.34 6.67 0.68 6.34 0 6 C0.66 5.01 1.32 4.02 2 3 C1.01 2.67 0.02 2.34 -1 2 C-0.67 1.34 -0.34 0.68 0 0 Z " fill="#DBDBDB" transform="translate(146,129)"/>
<path d="M0 0 C2.15825637 0.96749423 3.7900609 1.78093311 5.4375 3.5 C7.4156595 5.39903312 9.43558782 6.09899031 12 7 C12 7.66 12 8.32 12 9 C6.80474854 7.6393389 3.82444243 5.64232612 0 2 C0 1.34 0 0.68 0 0 Z " fill="#585556" transform="translate(159,44)"/>
<path d="M0 0 C0.66 0 1.32 0 2 0 C1.92303847 3.23238414 1.62561345 5.33227795 -0.625 7.734375 C-2.37770071 9.21851673 -4.15079362 10.63844334 -6 12 C-6 9 -6 9 -4.6875 7.5 C-3.5625 6.5 -2.4375 5.5 -1.3125 4.5 C0.3292523 2.95590371 0.3292523 2.95590371 0 0 Z " fill="#C3C2C3" transform="translate(141,71)"/>
<path d="M0 0 C0.33 1.65 0.66 3.3 1 5 C0.34 4.34 -0.32 3.68 -1 3 C-2.9931567 2.97624074 -2.9931567 2.97624074 -5.125 3.375 C-6.40375 3.58125 -7.6825 3.7875 -9 4 C-8.67 3.01 -8.34 2.02 -8 1 C-5.29120665 -0.35439668 -2.99066732 -0.06501451 0 0 Z " fill="#525050" transform="translate(138,220)"/>
<path d="M0 0 C6.75 1.75 6.75 1.75 9 4 C10.98821313 4.39764263 12.98944339 4.73775349 15 5 C15 5.33 15 5.66 15 6 C8.92671312 6.50610724 5.22771463 5.04157942 0 2 C0 1.34 0 0.68 0 0 Z " fill="#535151" transform="translate(73,72)"/>
<path d="M0 0 C0.33 0 0.66 0 1 0 C0.67 2.31 0.34 4.62 0 7 C-2.31 7.66 -4.62 8.32 -7 9 C-7 8.34 -7 7.68 -7 7 C-5.35 6.67 -3.7 6.34 -2 6 C-1.855625 5.195625 -1.71125 4.39125 -1.5625 3.5625 C-1 1 -1 1 0 0 Z " fill="#4D4B4B" transform="translate(114,55)"/>
<path d="M0 0 C0.66 0.66 1.32 1.32 2 2 C1.57044137 4.87985784 0.47704949 7.53813177 -0.5625 10.25 C-0.83191406 10.95640625 -1.10132812 11.6628125 -1.37890625 12.390625 C-1.58386719 12.92171875 -1.78882812 13.4528125 -2 14 C-2.66 13.67 -3.32 13.34 -4 13 C-3.27991594 8.39146203 -1.68704061 4.32762591 0 0 Z " fill="#5F5D5E" transform="translate(94,41)"/>
<path d="M0 0 C1.58172092 3.16344185 -0.0601894 5.71066289 -1 9 C-0.67 9.66 -0.34 10.32 0 11 C-0.33 11.66 -0.66 12.32 -1 13 C-1.99 13 -2.98 13 -4 13 C-3.67 11.02 -3.34 9.04 -3 7 C-2.34 7 -1.68 7 -1 7 C-1.020625 6.030625 -1.04125 5.06125 -1.0625 4.0625 C-1 1 -1 1 0 0 Z " fill="#E0DFDF" transform="translate(185,71)"/>
<path d="M0 0 C1.65 0 3.3 0 5 0 C4.01 0.33 3.02 0.66 2 1 C1.896875 1.7425 1.79375 2.485 1.6875 3.25 C0.95746496 6.17014018 -0.06789398 7.73187554 -2 10 C-2.6875 8.375 -2.6875 8.375 -3 6 C-1.5625 2.75 -1.5625 2.75 0 0 Z " fill="#383536" transform="translate(210,67)"/>
<path d="M0 0 C1.670625 0.2475 1.670625 0.2475 3.375 0.5 C6.72032033 1.0455458 6.72032033 1.0455458 9 1 C9 1.66 9 2.32 9 3 C5.78548731 4.60725635 2.56387464 4.05748185 -1 4 C-1.33 3.34 -1.66 2.68 -2 2 C-1.34 2 -0.68 2 0 2 C0 1.34 0 0.68 0 0 Z " fill="#565354" transform="translate(131,231)"/>
<path d="M0 0 C2.31 0 4.62 0 7 0 C7.33 1.65 7.66 3.3 8 5 C7.34 5 6.68 5 6 5 C5.67 4.34 5.34 3.68 5 3 C3.35 3 1.7 3 0 3 C0 2.01 0 1.02 0 0 Z " fill="#646262" transform="translate(80,220)"/>
<path d="M0 0 C1.65 0.33 3.3 0.66 5 1 C4.67 2.32 4.34 3.64 4 5 C1.525 4.01 1.525 4.01 -1 3 C-0.67 2.01 -0.34 1.02 0 0 Z " fill="#DCDBDB" transform="translate(172,222)"/>
<path d="M0 0 C0.66 0.33 1.32 0.66 2 1 C2 3.31 2 5.62 2 8 C0.02 8.99 0.02 8.99 -2 10 C-1.34 6.7 -0.68 3.4 0 0 Z " fill="#585656" transform="translate(160,87)"/>
<path d="M0 0 C0.99 0.33 1.98 0.66 3 1 C3 3.31 3 5.62 3 8 C1.68 7.67 0.36 7.34 -1 7 C-0.67 4.69 -0.34 2.38 0 0 Z " fill="#605E5E" transform="translate(203,77)"/>
<path d="M0 0 C1.32 0.33 2.64 0.66 4 1 C4 2.32 4 3.64 4 5 C2.35 5 0.7 5 -1 5 C-1.33 4.01 -1.66 3.02 -2 2 C-1.34 2 -0.68 2 0 2 C0 1.34 0 0.68 0 0 Z " fill="#595657" transform="translate(87,132)"/>
<path d="M0 0 C0.66 0.33 1.32 0.66 2 1 C2 3.31 2 5.62 2 8 C0.02 8.99 0.02 8.99 -2 10 C-1.34 6.7 -0.68 3.4 0 0 Z " fill="#5F5C5D" transform="translate(154,89)"/>
<path d="M0 0 C2.97 0.495 2.97 0.495 6 1 C5.34 2.32 4.68 3.64 4 5 C2.68 4.67 1.36 4.34 0 4 C0 2.68 0 1.36 0 0 Z " fill="#E7E6E7" transform="translate(213,69)"/>
<path d="M0 0 C0.33 0 0.66 0 1 0 C1 2.31 1 4.62 1 7 C0.34 7 -0.32 7 -1 7 C-1 7.66 -1 8.32 -1 9 C-1.66 9 -2.32 9 -3 9 C-2.25 2.25 -2.25 2.25 0 0 Z " fill="#B8B7B7" transform="translate(142,106)"/>
<path d="M0 0 C0.66 0 1.32 0 2 0 C2.33 1.98 2.66 3.96 3 6 C1.68 6.33 0.36 6.66 -1 7 C-1.04254356 5.00045254 -1.04080783 2.99958364 -1 1 C-0.67 0.67 -0.34 0.34 0 0 Z " fill="#464344" transform="translate(109,104)"/>
<path d="M0 0 C0.33 0 0.66 0 1 0 C0.67 2.97 0.34 5.94 0 9 C-1.32 9.33 -2.64 9.66 -4 10 C-2.68 6.7 -1.36 3.4 0 0 Z " fill="#595758" transform="translate(109,28)"/>
<path d="M0 0 C0 0.33 0 0.66 0 1 C-1.423125 1.12375 -1.423125 1.12375 -2.875 1.25 C-6.10461791 1.65074923 -6.10461791 1.65074923 -7.375 4.0625 C-7.58125 4.701875 -7.7875 5.34125 -8 6 C-8.99 5.67 -9.98 5.34 -11 5 C-11 3 -11 3 -9.4375 1.375 C-6.19319567 -0.45512039 -3.66275561 -0.21131282 0 0 Z " fill="#3A3A3A" transform="translate(118,176)"/>
<path d="M0 0 C2 3 2 3 2 7 C0.68 7.33 -0.64 7.66 -2 8 C-2 6.35 -2 4.7 -2 3 C-1.34 3 -0.68 3 0 3 C0 2.01 0 1.02 0 0 Z " fill="#525051" transform="translate(118,107)"/>
<path d="M0 0 C2 1 2 1 3.125 4.0625 C3.41375 5.031875 3.7025 6.00125 4 7 C2.35 7 0.7 7 -1 7 C-0.67 4.69 -0.34 2.38 0 0 Z " fill="#585657" transform="translate(179,79)"/>
<path d="M0 0 C0.33 1.98 0.66 3.96 1 6 C0.01 5.67 -0.98 5.34 -2 5 C-2 4.34 -2 3.68 -2 3 C-3.65 2.67 -5.3 2.34 -7 2 C-7 1.67 -7 1.34 -7 1 C-2.25 0 -2.25 0 0 0 Z " fill="#B1B0B1" transform="translate(58,79)"/>
<path d="M0 0 C1.65 1.65 3.3 3.3 5 5 C3.02 5 1.04 5 -1 5 C-0.67 3.35 -0.34 1.7 0 0 Z " fill="#363334" transform="translate(156,230)"/>
<path d="M0 0 C0.66 0.33 1.32 0.66 2 1 C2 3.31 2 5.62 2 8 C2.66 8 3.32 8 4 8 C4 8.66 4 9.32 4 10 C3.01 9.67 2.02 9.34 1 9 C0.234375 7.1875 0.234375 7.1875 -0.25 5 C-0.42015625 4.278125 -0.5903125 3.55625 -0.765625 2.8125 C-0.84296875 2.214375 -0.9203125 1.61625 -1 1 C-0.67 0.67 -0.34 0.34 0 0 Z " fill="#9D9C9C" transform="translate(121,102)"/>
<path d="M0 0 C0.33 0 0.66 0 1 0 C1.33 3.3 1.66 6.6 2 10 C1.01 10 0.02 10 -1 10 C-0.67 6.7 -0.34 3.4 0 0 Z " fill="#565455" transform="translate(186,69)"/>
<path d="M0 0 C1.32 0.33 2.64 0.66 4 1 C1.03 3.475 1.03 3.475 -2 6 C-2 3 -2 3 0 0 Z " fill="#5B595A" transform="translate(156,221)"/>
<path d="M0 0 C2.97 0.495 2.97 0.495 6 1 C5.67 1.99 5.34 2.98 5 4 C3.35 4.33 1.7 4.66 0 5 C0 3.35 0 1.7 0 0 Z " fill="#C0BFC0" transform="translate(102,143)"/>
<path d="M0 0 C0 3 0 3 -2.375 5.6875 C-5 8 -5 8 -7 8 C-5.61918777 3.8575633 -3.40174442 2.67796901 0 0 Z " fill="#383536" transform="translate(141,72)"/>
</svg>
